<svg id="Group_8930" data-name="Group 8930" xmlns="http://www.w3.org/2000/svg" xmlns:xlink="http://www.w3.org/1999/xlink" width="357.833" height="349.938" viewBox="0 0 357.833 349.938">
  <defs>
    <clipPath id="clip-path">
      <rect id="Rectangle_44" data-name="Rectangle 44" width="357.833" height="349.938" fill="none"/>
    </clipPath>
    <clipPath id="clip-path-3">
      <rect id="Rectangle_29" data-name="Rectangle 29" width="14" height="14" transform="translate(146.706 298.894)" fill="none"/>
    </clipPath>
    <clipPath id="clip-path-4">
      <rect id="Rectangle_30" data-name="Rectangle 30" width="6.5" height="6.5" transform="translate(150.456 302.644)" fill="none"/>
    </clipPath>
    <clipPath id="clip-path-5">
      <rect id="Rectangle_31" data-name="Rectangle 31" width="164.243" height="138.778" transform="translate(109.426 136.116)" fill="none"/>
    </clipPath>
    <clipPath id="clip-path-6">
      <rect id="Rectangle_32" data-name="Rectangle 32" width="169.969" height="130.21" transform="translate(131.603 96.075)" fill="none"/>
    </clipPath>
    <clipPath id="clip-path-7">
      <path id="Path_10838" data-name="Path 10838" d="M318.97,316.5l-.852,5.24a1.212,1.212,0,0,0,.96,1.425,8.224,8.224,0,0,0,1.9.03.962.962,0,0,0,.824-.794l1.226-5.9Z" fill="none"/>
    </clipPath>
    <linearGradient id="linear-gradient" x1="-55.147" y1="4.62" x2="-54.973" y2="4.62" gradientUnits="objectBoundingBox">
      <stop offset="0" stop-color="#fbd19d"/>
      <stop offset="1" stop-color="#fea392"/>
    </linearGradient>
    <clipPath id="clip-path-9">
      <path id="Path_10841" data-name="Path 10841" d="M291.636,321.482a1.033,1.033,0,0,0,.785,1.038,8,8,0,0,0,2.4.038.762.762,0,0,0,.642-.688c.186-1.537.665-5.5.7-5.764l-4.536-.85Z" fill="none"/>
    </clipPath>
    <linearGradient id="linear-gradient-2" x1="-54.402" y1="4.416" x2="-54.215" y2="4.416" xlink:href="#linear-gradient"/>
    <clipPath id="clip-path-11">
      <path id="Path_10845" data-name="Path 10845" d="M316.954,230.926c-2.49,1.244-2.49,3.112-2.49,3.112s1.245,2.489,3.113,1.866a11.653,11.653,0,0,1,4.043,0,11.628,11.628,0,0,0,4.048,0s.622-2.489-.623-2.489c0,0-4.116-2.743-6.859-2.743a2.741,2.741,0,0,0-1.232.254" fill="none"/>
    </clipPath>
    <linearGradient id="linear-gradient-3" x1="-25.906" y1="9.591" x2="-25.823" y2="9.591" xlink:href="#linear-gradient"/>
    <clipPath id="clip-path-13">
      <path id="Path_10847" data-name="Path 10847" d="M261.773,171.878c-1.257,1.335,1.216,9.258,1.216,9.258,4.392,4.744,2.88-8.254,2.713-11.264-.046-.832-.271-1.153-.6-1.153-.858,0-2.42,2.194-3.33,3.159" fill="none"/>
    </clipPath>
    <linearGradient id="linear-gradient-4" x1="-32.885" y1="10.337" x2="-32.759" y2="10.337" xlink:href="#linear-gradient"/>
    <clipPath id="clip-path-15">
      <path id="Path_10849" data-name="Path 10849" d="M302.395,155.092c-.663.088-1.3.181-1.872.277a2.324,2.324,0,0,0-1.934,2.384c.209,4.94.91,9.98,2.5,13.687.5,1.164,1.19,1.373,2.477,1.147a1.43,1.43,0,0,1,1.691,1.205c.289,2.217.727,5.142.91,6.862-.47,3.753,9.878,2.163,8.918-.211-.742-3.833-2.037-10.584-2.778-14.417a2.043,2.043,0,0,0,2.347-.427,1.651,1.651,0,0,0-2.257-2.361c-.543-1.1-1.525-2.792-2.5-4.466a7.522,7.522,0,0,0-7.5-3.68" fill="none"/>
    </clipPath>
    <linearGradient id="linear-gradient-5" x1="-9.529" y1="9.64" x2="-9.496" y2="9.64" xlink:href="#linear-gradient"/>
  </defs>
  <g id="Group_8929" data-name="Group 8929" clip-path="url(#clip-path)">
    <g id="Group_8908" data-name="Group 8908">
      <g id="Group_8907" data-name="Group 8907" clip-path="url(#clip-path)">
        <path id="Path_10776" data-name="Path 10776" d="M357.833,330.265c0,10.865-80.1,19.673-178.916,19.673S0,341.13,0,330.265s80.1-19.673,178.917-19.673,178.916,8.808,178.916,19.673" fill="#e9e9f4"/>
        <path id="Path_10777" data-name="Path 10777" d="M69.992,278.919a29.852,29.852,0,1,1-36.827-20.641,29.852,29.852,0,0,1,36.827,20.641" fill="#d64f30"/>
        <path id="Path_10778" data-name="Path 10778" d="M30.928,276.379a5.974,5.974,0,0,0-4.131,7.37l.509,1.807a1.629,1.629,0,1,0,3.137-.883l-.509-1.807a2.717,2.717,0,0,1,1.878-3.35l1.807-.509a1.63,1.63,0,0,0-.884-3.137Zm11.786-3.319A1.629,1.629,0,1,0,43.6,276.2l1.807-.509a2.717,2.717,0,0,1,3.35,1.878l.509,1.807a1.629,1.629,0,0,0,3.137-.883l-.509-1.807a5.973,5.973,0,0,0-7.37-4.131Zm-9.461,21.591a1.629,1.629,0,1,0-3.136.884l.509,1.807A5.974,5.974,0,0,0,38,301.473l1.807-.509a1.63,1.63,0,0,0-.884-3.137l-1.807.509a2.718,2.718,0,0,1-3.35-1.878Zm21.957-6.184a1.629,1.629,0,1,0-3.136.884l.509,1.807a2.717,2.717,0,0,1-1.878,3.35l-1.807.509a1.629,1.629,0,1,0,.884,3.136l1.806-.509a5.973,5.973,0,0,0,4.131-7.37Zm-20.144-1.4a1.629,1.629,0,0,0,.883,3.137l11.5-3.24a1.629,1.629,0,1,0-.884-3.136Z" fill="#fff"/>
        <path id="Path_10779" data-name="Path 10779" d="M88.493,307.875a4.478,4.478,0,0,0,6.247,1.043l25.272-18.029a4.477,4.477,0,0,0,1.045-6.246L45.122,178.2a4.478,4.478,0,0,0-6.246-1.044L13.6,195.191a4.477,4.477,0,0,0-1.045,6.243Z" fill="#1c2730"/>
        <rect id="Rectangle_13" data-name="Rectangle 13" width="30.449" height="23.284" transform="matrix(0.814, -0.581, 0.581, 0.814, 17.312, 199.876)" fill="#d64f30"/>
        <rect id="Rectangle_14" data-name="Rectangle 14" width="30.449" height="23.284" transform="translate(33.87 223.086) rotate(-35.502)" fill="#d86450"/>
        <rect id="Rectangle_15" data-name="Rectangle 15" width="30.449" height="23.285" transform="translate(50.427 246.296) rotate(-35.506)" fill="#eda988"/>
        <rect id="Rectangle_16" data-name="Rectangle 16" width="30.448" height="23.283" transform="matrix(0.814, -0.581, 0.581, 0.814, 66.986, 269.505)" fill="#f7c9b7"/>
        <path id="Path_10780" data-name="Path 10780" d="M92.815,298.277a4.477,4.477,0,0,0,5.558,3.033l29.785-8.753A4.476,4.476,0,0,0,131.191,287L94.325,161.553a4.478,4.478,0,0,0-5.559-3.033l-31.2,10.009c-2.372.7-2.313,1.93-1.616,4.3Z" fill="#1c2730"/>
        <rect id="Rectangle_17" data-name="Rectangle 17" width="30.449" height="23.285" transform="translate(60.949 172.919) rotate(-16.38)" fill="#85b7f9"/>
        <rect id="Rectangle_18" data-name="Rectangle 18" width="30.45" height="23.285" transform="matrix(0.959, -0.282, 0.282, 0.959, 68.988, 200.272)" fill="#ff6575"/>
        <rect id="Rectangle_19" data-name="Rectangle 19" width="30.449" height="23.284" transform="translate(77.027 227.626) rotate(-16.38)" fill="#d372fa"/>
        <rect id="Rectangle_20" data-name="Rectangle 20" width="30.448" height="23.284" transform="translate(85.067 254.977) rotate(-16.375)" fill="#8900c8"/>
        <path id="Path_10781" data-name="Path 10781" d="M302.246,84.628H225.869v-43.2h76.377Zm-75.833-.661H301.7V42.092H226.413Z" fill="#e9e9f4"/>
        <rect id="Rectangle_21" data-name="Rectangle 21" width="2.041" height="2.507" transform="translate(262.726 40.413)" fill="#e9e9f4"/>
        <path id="Path_10782" data-name="Path 10782" d="M265.04,43.25h-2.585V40.083h2.585ZM263,42.59h1.5V40.744H263Z" fill="#e9e9f4"/>
        <rect id="Rectangle_22" data-name="Rectangle 22" width="2.041" height="2.476" transform="translate(262.726 83.088)" fill="#e9e9f4"/>
        <path id="Path_10783" data-name="Path 10783" d="M265.04,85.894h-2.585V82.757h2.585ZM263,85.234h1.5V83.418H263Z" fill="#e9e9f4"/>
        <rect id="Rectangle_23" data-name="Rectangle 23" width="2.041" height="2.476" transform="translate(301.029 83.088)" fill="#e9e9f4"/>
        <path id="Path_10784" data-name="Path 10784" d="M303.342,85.894h-2.585V82.757h2.585Zm-2.041-.66h1.5V83.418h-1.5Z" fill="#e9e9f4"/>
        <rect id="Rectangle_24" data-name="Rectangle 24" width="2.041" height="2.476" transform="translate(301.029 40.661)" fill="#e9e9f4"/>
        <path id="Path_10785" data-name="Path 10785" d="M303.342,43.468h-2.585V40.331h2.585Zm-2.041-.661h1.5V40.991h-1.5Z" fill="#e9e9f4"/>
        <rect id="Rectangle_25" data-name="Rectangle 25" width="2.041" height="2.476" transform="translate(225.376 83.088)" fill="#e9e9f4"/>
        <path id="Path_10786" data-name="Path 10786" d="M227.69,85.894H225.1V82.757h2.585Zm-2.041-.66h1.5V83.418h-1.5Z" fill="#e9e9f4"/>
        <rect id="Rectangle_26" data-name="Rectangle 26" width="2.041" height="2.476" transform="translate(225.376 61.407)" fill="#e9e9f4"/>
        <path id="Path_10787" data-name="Path 10787" d="M227.69,64.213H225.1V61.076h2.585Zm-2.041-.66h1.5V61.737h-1.5Z" fill="#e9e9f4"/>
        <rect id="Rectangle_27" data-name="Rectangle 27" width="2.041" height="2.476" transform="translate(301.12 61.407)" fill="#e9e9f4"/>
        <path id="Path_10788" data-name="Path 10788" d="M303.433,64.213h-2.585V61.076h2.585Zm-2.041-.66h1.5V61.737h-1.5Z" fill="#e9e9f4"/>
        <rect id="Rectangle_28" data-name="Rectangle 28" width="2.041" height="2.476" transform="translate(225.376 40.661)" fill="#e9e9f4"/>
        <path id="Path_10789" data-name="Path 10789" d="M227.69,43.468H225.1V40.331h2.585Zm-2.041-.661h1.5V40.991h-1.5Z" fill="#e9e9f4"/>
        <path id="Path_10790" data-name="Path 10790" d="M248.139,51.96v3.525h-5.8V73.738h-4.368V55.485h-5.8V51.96Z" fill="#e9e9f4"/>
        <path id="Path_10791" data-name="Path 10791" d="M267.263,66.4H254.627a4.3,4.3,0,0,0,1.311,2.934,4.04,4.04,0,0,0,2.839,1.06,3.569,3.569,0,0,0,3.464-2.09h4.711a7.882,7.882,0,0,1-2.871,4.1,8.38,8.38,0,0,1-5.21,1.607,9.008,9.008,0,0,1-4.477-1.108,7.779,7.779,0,0,1-3.089-3.136,9.6,9.6,0,0,1-1.108-4.68,9.788,9.788,0,0,1,1.092-4.711,7.629,7.629,0,0,1,3.058-3.12,9.815,9.815,0,0,1,8.938-.031,7.469,7.469,0,0,1,3.027,3.011,9.105,9.105,0,0,1,1.076,4.477,10.23,10.23,0,0,1-.125,1.685m-4.4-2.933a3.463,3.463,0,0,0-1.216-2.7,4.313,4.313,0,0,0-2.9-1.014,3.965,3.965,0,0,0-2.73.983,4.321,4.321,0,0,0-1.358,2.73Z" fill="#e9e9f4"/>
        <path id="Path_10792" data-name="Path 10792" d="M280.118,73.737l-3.556-5.367-3.152,5.367h-4.68l5.647-8.674-5.709-8.611H273.6l3.526,5.335,3.183-5.335h4.68l-5.679,8.611,5.741,8.674Z" fill="#e9e9f4"/>
        <path id="Path_10793" data-name="Path 10793" d="M292.505,60.04V68.4a1.651,1.651,0,0,0,.421,1.263,2.07,2.07,0,0,0,1.42.39h2.028v3.682h-2.746q-5.523,0-5.522-5.367V60.04h-2.06V56.452h2.06V52.178h4.4v4.274h3.869V60.04Z" fill="#e9e9f4"/>
        <path id="Path_10794" data-name="Path 10794" d="M219.812,113.589h-.224v-23.8a14.283,14.283,0,0,0-14.293-14.276H102.1a13.962,13.962,0,0,0-6.486,1.569H95.6A14.319,14.319,0,0,0,88.58,85.17a12.991,12.991,0,0,0-.549,2.134,14.406,14.406,0,0,0-.215,2.484v23.8H87.6a1.858,1.858,0,0,0-1.861,1.86v16.469a1.751,1.751,0,0,0,.05.423,1.862,1.862,0,0,0,1.811,1.437h.216v3.928H87.6a1.858,1.858,0,0,0-1.861,1.86v16.452A1.872,1.872,0,0,0,87.6,157.9h.216V302.017a14.3,14.3,0,0,0,14.284,14.3H205.295a14.294,14.294,0,0,0,14.293-14.3V143.868h.224a1.856,1.856,0,0,0,1.86-1.86V115.449a1.857,1.857,0,0,0-1.86-1.86M166.977,81.74a1.08,1.08,0,1,1-1.08,1.08,1.078,1.078,0,0,1,1.08-1.08m-27.132.432a.435.435,0,0,1,.432-.432h23.037a.435.435,0,0,1,.432.432v1.3a.429.429,0,0,1-.432.431H140.277a.429.429,0,0,1-.432-.431Zm75.582,213.7H91.976V91.581a12.337,12.337,0,0,1,.416-3.205,11.221,11.221,0,0,1,.764-2.1,12.516,12.516,0,0,1,8.877-6.985c.2-.041.407-.074.607-.108s.39-.058.589-.083l.59-.05c.232-.008.457-.016.689-.016h19.608a3.957,3.957,0,0,0,.025.448c.008.1.016.2.025.3a8.377,8.377,0,0,0,2.873,5.365,8.323,8.323,0,0,0,5.431,2h42.471a8.365,8.365,0,0,0,8.3-7.242c.016-.141.033-.282.041-.424s.017-.3.017-.448h19.6c.432,0,.864.025,1.287.066a12.543,12.543,0,0,1,11.245,12.482Z" fill="#1c2730"/>
        <path id="Path_10795" data-name="Path 10795" d="M215.427,92.428V295.871H91.976V92.428c0-6.71,4.626-12.283,10.664-13.246.2-.033.39-.058.589-.083l.59-.05c.232-.008.457-.017.689-.017h19.608a3.975,3.975,0,0,0,.025.449c.008.1.016.2.025.3a8.377,8.377,0,0,0,2.873,5.365,8.327,8.327,0,0,0,5.431,2h42.471a8.364,8.364,0,0,0,8.3-7.242c.016-.141.033-.282.041-.423s.017-.3.017-.449h19.6c.432,0,.864.025,1.287.067,6.32.7,11.245,6.4,11.245,13.329" fill="#dad3cb"/>
        <path id="Path_10796" data-name="Path 10796" d="M163.747,82.172v1.3a.429.429,0,0,1-.432.431H140.278a.429.429,0,0,1-.432-.431v-1.3a.434.434,0,0,1,.432-.432h23.037a.434.434,0,0,1,.432.432" fill="#dad3cb"/>
        <path id="Path_10797" data-name="Path 10797" d="M168.057,82.82a1.08,1.08,0,1,1-1.08-1.08,1.078,1.078,0,0,1,1.08,1.08" fill="#dad3cb"/>
        <g id="Group_8897" data-name="Group 8897" opacity="0.2">
          <g id="Group_8896" data-name="Group 8896">
            <g id="Group_8895" data-name="Group 8895" clip-path="url(#clip-path-3)">
              <path id="Path_10798" data-name="Path 10798" d="M160.706,305.894a7,7,0,1,1-7-7,7,7,0,0,1,7,7" fill="#fff"/>
            </g>
          </g>
        </g>
        <g id="Group_8900" data-name="Group 8900" opacity="0.5">
          <g id="Group_8899" data-name="Group 8899">
            <g id="Group_8898" data-name="Group 8898" clip-path="url(#clip-path-4)">
              <path id="Path_10799" data-name="Path 10799" d="M155.706,309.144h-4a1.252,1.252,0,0,1-1.25-1.25v-4a1.252,1.252,0,0,1,1.25-1.25h4a1.252,1.252,0,0,1,1.25,1.25v4a1.252,1.252,0,0,1-1.25,1.25m-4-6a.752.752,0,0,0-.75.75v4a.752.752,0,0,0,.75.75h4a.752.752,0,0,0,.75-.75v-4a.752.752,0,0,0-.75-.75Z" fill="#fff"/>
            </g>
          </g>
        </g>
        <g id="Group_8903" data-name="Group 8903" opacity="0.3">
          <g id="Group_8902" data-name="Group 8902">
            <g id="Group_8901" data-name="Group 8901" clip-path="url(#clip-path-5)">
              <path id="Path_10800" data-name="Path 10800" d="M263.669,274.894H119.426a10,10,0,0,1-10-10V146.115a10,10,0,0,1,10-10H263.669a10,10,0,0,1,10,10V264.894a10,10,0,0,1-10,10" fill="#1c2730"/>
            </g>
          </g>
        </g>
        <path id="Path_10801" data-name="Path 10801" d="M296.7,228.4h-8.208v-1.724H296.7Zm-14.3,0H276.31v-1.724H282.4Zm-12.186,0h-6.092v-1.724h6.092Zm-12.186,0h-6.093v-1.724h6.093Zm-12.186,0h-6.092v-1.724h6.092Zm-12.185,0h-6.093v-1.724h6.093Zm-12.185,0h-6.093v-1.724h6.093Zm-12.186,0H203.2v-1.724h6.092Zm-12.186,0H191.01v-1.724H197.1Zm-12.185,0h-6.093v-1.724h6.093Zm-12.186,0h-6.093v-1.724h6.093Zm-12.185,0h-6.093v-1.724h6.093Zm-12.186,0h-6.092v-1.724h6.092Zm-12.391-.367a9.5,9.5,0,0,1-5.29-3.881l1.437-.953a7.773,7.773,0,0,0,4.328,3.178Zm164.8-1.929-1.125-1.306a7.757,7.757,0,0,0,2.607-4.693l1.7.261a9.478,9.478,0,0,1-3.185,5.738m-169.942-8.238h-1.724v-6.092h1.724Zm173.237-3.717h-1.724v-6.093h1.724ZM130.831,205.68h-1.724v-6.093h1.724Zm173.237-3.718h-1.724v-6.093h1.724Zm-173.237-8.468h-1.724V187.4h1.724Zm173.237-3.718h-1.724v-6.093h1.724Zm-173.237-8.467h-1.724v-6.093h1.724Zm173.237-3.718h-1.724V171.5h1.724Zm-173.237-8.468h-1.724V163.03h1.724ZM304.068,165.4h-1.724v-6.093h1.724Zm-173.237-8.468h-1.724v-6.093h1.724Zm173.237-3.718h-1.724v-6.093h1.724Zm-173.237-8.467h-1.724v-6.093h1.724Zm173.237-3.718h-1.724v-6.093h1.724Zm-173.237-8.468h-1.724v-6.093h1.724Zm173.237-3.718h-1.724v-6.093h1.724Zm-173.237-8.467h-1.724v-6.093h1.724Zm173.237-3.718h-1.724V110.57h1.724Zm-173.237-8.468h-1.724v-4.754a9.58,9.58,0,0,1,.113-1.465l1.7.264a7.913,7.913,0,0,0-.092,1.2Zm173.237-3.718h-1.724v-1.036a7.724,7.724,0,0,0-1.295-4.293l1.434-.955a9.432,9.432,0,0,1,1.585,5.248Zm-170.53-6.925-1.123-1.307a9.48,9.48,0,0,1,6.15-2.284l0,1.723a7.764,7.764,0,0,0-5.031,1.868M296.714,95.98a7.766,7.766,0,0,0-2.126-.3h-3.7V93.961h3.7a9.511,9.511,0,0,1,2.6.361Zm-11.919-.3H278.7V93.961H284.8Zm-12.185,0h-6.093V93.961h6.093Zm-12.186,0h-6.092V93.961h6.092Zm-12.185,0h-6.093V93.961h6.093Zm-12.186,0H229.96V93.961h6.093Zm-12.186,0h-6.093V93.961h6.093Zm-12.185,0h-6.093V93.961h6.093Zm-12.186,0H193.4V93.961H199.5Zm-12.185,0h-6.093V93.961h6.093Zm-12.186,0h-6.093V93.961h6.093Zm-12.186,0h-6.092V93.961h6.092Zm-12.185,0h-6.093V93.961h6.093Z" fill="#d64f30"/>
        <g id="Group_8906" data-name="Group 8906" opacity="0.5">
          <g id="Group_8905" data-name="Group 8905">
            <g id="Group_8904" data-name="Group 8904" clip-path="url(#clip-path-6)">
              <path id="Path_10802" data-name="Path 10802" d="M291.572,226.285H141.6a10,10,0,0,1-10-10V106.075a10,10,0,0,1,10-10H291.572a10,10,0,0,1,10,10v110.21a10,10,0,0,1-10,10" fill="#d64f30"/>
            </g>
          </g>
        </g>
        <path id="Path_10803" data-name="Path 10803" d="M252.678,261.094H108.435a10,10,0,0,1-10-10V145.27a10,10,0,0,1,10-10H252.678a10,10,0,0,1,10,10V251.094a10,10,0,0,1-10,10" fill="#f5f6ff"/>
        <path id="Path_10804" data-name="Path 10804" d="M120.9,159.159h-7.17l-1.187,3.43h-3.791l6.474-18.029h4.2l6.474,18.029h-3.817Zm-.98-2.889-2.605-7.531-2.6,7.531Z" fill="#1c2730"/>
        <path id="Path_10805" data-name="Path 10805" d="M128.259,151.549a6.338,6.338,0,0,1,2.348-2.579,6.244,6.244,0,0,1,3.314-.9,5.829,5.829,0,0,1,2.8.645,5.674,5.674,0,0,1,1.921,1.625V148.3h3.637v14.289H138.64V160.5a5.367,5.367,0,0,1-1.921,1.664,5.884,5.884,0,0,1-2.824.658,6.069,6.069,0,0,1-3.288-.929,6.493,6.493,0,0,1-2.348-2.618,8.407,8.407,0,0,1-.864-3.882,8.272,8.272,0,0,1,.864-3.843m9.866,1.638a3.643,3.643,0,0,0-1.393-1.444,3.726,3.726,0,0,0-1.883-.5,3.664,3.664,0,0,0-1.857.49,3.7,3.7,0,0,0-1.38,1.431,4.492,4.492,0,0,0-.529,2.231,4.638,4.638,0,0,0,.529,2.257,3.81,3.81,0,0,0,1.393,1.483,3.528,3.528,0,0,0,1.844.516,3.716,3.716,0,0,0,1.883-.5,3.637,3.637,0,0,0,1.393-1.444,5.2,5.2,0,0,0,0-4.514" fill="#1c2730"/>
        <path id="Path_10806" data-name="Path 10806" d="M255.733,168.524H216.527a2.139,2.139,0,1,1,0-4.277h39.206a2.139,2.139,0,1,1,0,4.277" fill="#dad3cb"/>
        <path id="Path_10807" data-name="Path 10807" d="M200.131,168.524H160.925a2.139,2.139,0,1,1,0-4.277h39.206a2.139,2.139,0,1,1,0,4.277" fill="#ff6575"/>
        <path id="Path_10808" data-name="Path 10808" d="M255.733,155.692H160.212a2.139,2.139,0,0,1,0-4.277h95.521a2.139,2.139,0,1,1,0,4.277" fill="#85b7f9"/>
        <path id="Path_10809" data-name="Path 10809" d="M180.885,180.642H111.027a2.138,2.138,0,1,1,0-4.277h69.858a2.138,2.138,0,1,1,0,4.277" fill="#f8d48f"/>
        <path id="Path_10810" data-name="Path 10810" d="M255.733,180.642H191.577a2.138,2.138,0,0,1,0-4.277h64.156a2.138,2.138,0,1,1,0,4.277" fill="#8900c8"/>
        <path id="Path_10811" data-name="Path 10811" d="M132.411,192.76H111.026a2.138,2.138,0,1,1,0-4.277h21.385a2.138,2.138,0,1,1,0,4.277" fill="#d372fa"/>
        <path id="Path_10812" data-name="Path 10812" d="M163.777,192.76H142.391a2.138,2.138,0,0,1,0-4.277h21.386a2.138,2.138,0,0,1,0,4.277" fill="#d372fa"/>
        <path id="Path_10813" data-name="Path 10813" d="M209.4,192.76H173.043a2.138,2.138,0,0,1,0-4.277H209.4a2.138,2.138,0,1,1,0,4.277" fill="#1c2730"/>
        <path id="Path_10814" data-name="Path 10814" d="M255.733,192.76H218.665a2.138,2.138,0,0,1,0-4.277h37.068a2.138,2.138,0,1,1,0,4.277" fill="#dad3cb"/>
        <path id="Path_10815" data-name="Path 10815" d="M162.351,204.879H111.026a2.138,2.138,0,0,1,0-4.277h51.325a2.138,2.138,0,1,1,0,4.277" fill="#d372fa"/>
        <path id="Path_10816" data-name="Path 10816" d="M224.368,204.879H173.043a2.138,2.138,0,0,1,0-4.277h51.325a2.138,2.138,0,1,1,0,4.277" fill="#1c2730"/>
        <path id="Path_10817" data-name="Path 10817" d="M255.733,204.879H236.486a2.138,2.138,0,0,1,0-4.277h19.247a2.138,2.138,0,1,1,0,4.277" fill="#d64f30"/>
        <path id="Path_10818" data-name="Path 10818" d="M131.7,217H111.027a2.138,2.138,0,1,1,0-4.277H131.7a2.138,2.138,0,1,1,0,4.277" fill="#d64f30"/>
        <path id="Path_10819" data-name="Path 10819" d="M180.172,217H142.391a2.138,2.138,0,0,1,0-4.277h37.781a2.138,2.138,0,1,1,0,4.277" fill="#dad3cb"/>
        <path id="Path_10820" data-name="Path 10820" d="M255.733,217H189.439a2.138,2.138,0,1,1,0-4.277h66.294a2.138,2.138,0,1,1,0,4.277" fill="#dad3cb"/>
        <path id="Path_10821" data-name="Path 10821" d="M255.733,229.115H221.517a2.139,2.139,0,1,1,0-4.277h34.216a2.139,2.139,0,1,1,0,4.277" fill="#dad3cb"/>
        <path id="Path_10822" data-name="Path 10822" d="M212.25,229.115H188.726a2.139,2.139,0,0,1,0-4.277H212.25a2.139,2.139,0,1,1,0,4.277" fill="#dad3cb"/>
        <path id="Path_10823" data-name="Path 10823" d="M118.868,229.115h-7.842a2.139,2.139,0,1,1,0-4.277h7.842a2.139,2.139,0,1,1,0,4.277" fill="#dad3cb"/>
        <path id="Path_10824" data-name="Path 10824" d="M135.263,229.115h-7.841a2.139,2.139,0,1,1,0-4.277h7.841a2.139,2.139,0,1,1,0,4.277" fill="#dad3cb"/>
        <path id="Path_10825" data-name="Path 10825" d="M178.033,229.115H145.242a2.139,2.139,0,0,1,0-4.277h32.791a2.139,2.139,0,1,1,0,4.277" fill="#dad3cb"/>
        <path id="Path_10826" data-name="Path 10826" d="M255.733,241.233H178.746a2.139,2.139,0,0,1,0-4.277h76.987a2.139,2.139,0,1,1,0,4.277" fill="#dad3cb"/>
        <path id="Path_10827" data-name="Path 10827" d="M165.2,241.233H111.026a2.139,2.139,0,0,1,0-4.277H165.2a2.139,2.139,0,1,1,0,4.277" fill="#dad3cb"/>
        <path id="Path_10828" data-name="Path 10828" d="M255.733,253.352H111.026a2.139,2.139,0,0,1,0-4.277H255.733a2.139,2.139,0,1,1,0,4.277" fill="#dad3cb"/>
        <path id="Path_10829" data-name="Path 10829" d="M256.728,132.894H104.14a5.706,5.706,0,0,1-5.706-5.706V112.6a5.706,5.706,0,0,1,5.706-5.706H256.728a5.706,5.706,0,0,1,5.706,5.706v14.588a5.706,5.706,0,0,1-5.706,5.706" fill="#f5f6ff" fill-rule="evenodd"/>
        <path id="Path_10830" data-name="Path 10830" d="M202.4,125.491l6.739-6.739-3.2-3.2L199.2,122.29a.726.726,0,0,0-.191.336l-.747,3.8,3.8-.747a.726.726,0,0,0,.337-.19m8.914-8.914a1.451,1.451,0,0,0,0-2.051l-1.15-1.15a1.451,1.451,0,0,0-2.051,0l-1.15,1.15,3.2,3.2Z" fill="#1c2730"/>
        <path id="Path_10831" data-name="Path 10831" d="M112.438,111.933a.777.777,0,0,0-1.39-.476l-5.43,6.982a.775.775,0,0,0,0,.952l5.43,6.982a.777.777,0,0,0,1.39-.476v-3.1c4.172.087,6.176.879,7.183,1.74a4.193,4.193,0,0,1,1.315,2.79l.048.26a.776.776,0,0,0,1.537-.1,14.151,14.151,0,0,0-1.573-7.805c-1.462-2.508-4.094-4.436-8.51-4.638Z" fill="#1c2730" fill-rule="evenodd"/>
        <path id="Path_10832" data-name="Path 10832" d="M247.452,115.053c-4.417.2-7.049,2.13-8.511,4.638a14.139,14.139,0,0,0-1.572,7.805.775.775,0,0,0,1.536.1l.048-.26a4.191,4.191,0,0,1,1.315-2.79c1.007-.861,3.011-1.653,7.184-1.74v3.1a.776.776,0,0,0,1.389.476l5.43-6.982a.776.776,0,0,0,0-.953l-5.43-6.981a.776.776,0,0,0-1.389.476Z" fill="#1c2730" fill-rule="evenodd"/>
        <path id="Path_10833" data-name="Path 10833" d="M163,119.89c0-.435-.3-.695-.834-.695a1.821,1.821,0,0,0-.442.042v1.4a1.647,1.647,0,0,0,.358.028c.568,0,.918-.287.918-.771m3.3-.681a2.241,2.241,0,0,0-.485.042v3.094a1.98,1.98,0,0,0,.372.021,1.466,1.466,0,0,0,1.6-1.655,1.356,1.356,0,0,0-1.487-1.5" fill="#1c2730"/>
        <path id="Path_10834" data-name="Path 10834" d="M172.622,117.392h-.388v-1.871c0-.012,0-.024,0-.036a.309.309,0,0,0-.075-.205l-3.113-3.556,0,0a.315.315,0,0,0-.146-.091l-.017-.006a.3.3,0,0,0-.072-.009h-7.653a.634.634,0,0,0-.633.633v5.143h-.388a.9.9,0,0,0-.9.9V123a.906.906,0,0,0,.9.9h.388v3.222a.635.635,0,0,0,.633.634H171.6a.635.635,0,0,0,.634-.634v-3.222h.388a.905.905,0,0,0,.9-.9V118.3a.905.905,0,0,0-.9-.9m-11.471-5.143h7.336v3.24a.317.317,0,0,0,.317.317h2.8v1.586h-10.45Zm7.774,8.427a2.4,2.4,0,0,1-.786,1.915,3.392,3.392,0,0,1-2.181.61,9.507,9.507,0,0,1-1.214-.069v-4.645a9.566,9.566,0,0,1,1.445-.1,3.04,3.04,0,0,1,1.936.5,2.09,2.09,0,0,1,.8,1.782m-8.258,2.477v-4.666a8.775,8.775,0,0,1,1.445-.1,2.269,2.269,0,0,1,1.445.379,1.38,1.38,0,0,1,.5,1.094,1.51,1.51,0,0,1-.435,1.123,2.2,2.2,0,0,1-1.537.5,2.686,2.686,0,0,1-.364-.021v1.691ZM171.6,126.96H161.151v-3.051H171.6Zm.918-7.659H170.7v1.081h1.7v.87h-1.7v1.9h-1.073v-4.729h2.89Z" fill="#1c2730"/>
        <path id="Path_10835" data-name="Path 10835" d="M289.444,182.381a39.944,39.944,0,0,0-10.1,19.987c-2.508,12.79-8.464-18.082-8.464-18.082h-6.019s-2.271,31.811,14.722,34.34a9.124,9.124,0,0,0,8.516-3.373c3.1-3.94,7.945-10.95,9.114-17.632-1-10.534-7.774-15.24-7.774-15.24" fill="#d64f30"/>
        <path id="Path_10836" data-name="Path 10836" d="M327.995,329.68a1.126,1.126,0,0,0-.029-.286c-1.423-5.643-7.244-8.535-7.244-8.535l-2.8.219c-1.61,4.974-2.648,7.4-2.389,8.761.007.038.019.074.029.111a66.477,66.477,0,0,0,12.432-.27" fill="#1c2730"/>
        <path id="Path_10837" data-name="Path 10837" d="M315.563,329.95a1.214,1.214,0,0,0,.888.9c3.286.691,8.507.135,10.7-.152a1.018,1.018,0,0,0,.845-1.015,66.476,66.476,0,0,1-12.432.27" fill="#1c2730"/>
      </g>
    </g>
    <g id="Group_8910" data-name="Group 8910">
      <g id="Group_8909" data-name="Group 8909" clip-path="url(#clip-path-7)">
        <rect id="Rectangle_34" data-name="Rectangle 34" width="5.76" height="7.296" transform="matrix(0.993, -0.114, 0.114, 0.993, 317.24, 316.589)" fill="url(#linear-gradient)"/>
      </g>
    </g>
    <g id="Group_8912" data-name="Group 8912">
      <g id="Group_8911" data-name="Group 8911" clip-path="url(#clip-path)">
        <path id="Path_10839" data-name="Path 10839" d="M291.775,329.9a16.165,16.165,0,0,0,5.336-.763c0,.3,0,.6-.009.914a.591.591,0,0,1-.564.6l-16.417-.106a.749.749,0,0,1-.6-1.091c2.153.177,7.635.575,12.257.446" fill="#1c2730"/>
        <path id="Path_10840" data-name="Path 10840" d="M279.519,329.454a.814.814,0,0,1,.065-.124c1.45-2.026,5.142-6.06,12.439-7.809l3.5-.111a16.807,16.807,0,0,1,1.588,7.728,16.175,16.175,0,0,1-5.336.762c-4.622.13-10.1-.268-12.257-.446" fill="#1c2730"/>
      </g>
    </g>
    <g id="Group_8914" data-name="Group 8914">
      <g id="Group_8913" data-name="Group 8913" clip-path="url(#clip-path-9)">
        <rect id="Rectangle_36" data-name="Rectangle 36" width="5.353" height="7.906" transform="translate(290.795 315.352) rotate(-6.537)" fill="url(#linear-gradient-2)"/>
      </g>
    </g>
    <g id="Group_8916" data-name="Group 8916">
      <g id="Group_8915" data-name="Group 8915" clip-path="url(#clip-path)">
        <path id="Path_10842" data-name="Path 10842" d="M320.688,239.016s5.6,49.79,2.49,80.908a24.1,24.1,0,0,1-5.6-.622s-5.82-48.682-7.7-62.612a.468.468,0,0,0-.924-.029c-2.323,11.719-11.448,57.678-12.533,62.018,0,0-3.112,1.245-5.6,0,0,0,4.979-66.593,8.713-78.418Z" fill="#1c2730"/>
        <path id="Path_10843" data-name="Path 10843" d="M331.891,181.136s-23.65-3.734-42.321,1.245l1.245,19.293s4.978,26.762,8.713,38.587c0,0,14.314,2.49,21.16-1.245,0,0,5.6-33.608,8.713-38.587,0,0,3.112-13.069,2.49-19.293" fill="#d64f30"/>
        <path id="Path_10844" data-name="Path 10844" d="M331.891,181.136s36.72,39.832-6.535,55.08V233.1s16.182-13.692,3.734-32.363c0,0,1.556-17.738,2.8-19.6" fill="#d64f30"/>
      </g>
    </g>
    <g id="Group_8918" data-name="Group 8918">
      <g id="Group_8917" data-name="Group 8917" clip-path="url(#clip-path-11)">
        <rect id="Rectangle_38" data-name="Rectangle 38" width="12.133" height="12.795" transform="matrix(0.649, -0.76, 0.76, 0.649, 311.572, 234.057)" fill="url(#linear-gradient-3)"/>
      </g>
    </g>
    <g id="Group_8920" data-name="Group 8920">
      <g id="Group_8919" data-name="Group 8919" clip-path="url(#clip-path)">
        <path id="Path_10846" data-name="Path 10846" d="M264.495,164.167l7.9,2.662a2.619,2.619,0,0,1,1.693,2.481l-.41,13.186c.128,2.063-1.575,3.882-3.183,3.4l-6.335-2.159a1.626,1.626,0,0,1-1.033-1.632l-.139-16.418c-.008-.948.775-1.738,1.506-1.519" fill="#1c2730"/>
      </g>
    </g>
    <g id="Group_8922" data-name="Group 8922">
      <g id="Group_8921" data-name="Group 8921" clip-path="url(#clip-path-13)">
        <rect id="Rectangle_40" data-name="Rectangle 40" width="7.906" height="17.55" transform="translate(259.464 168.784) rotate(-3.522)" fill="url(#linear-gradient-4)"/>
      </g>
    </g>
    <g id="Group_8924" data-name="Group 8924">
      <g id="Group_8923" data-name="Group 8923" clip-path="url(#clip-path)">
        <path id="Path_10848" data-name="Path 10848" d="M299.77,160.281a20.9,20.9,0,0,1-4.226-4.847,9.594,9.594,0,0,1-1.4-6.177,6.285,6.285,0,0,1,3.687-4.94,3.193,3.193,0,0,1,3.446.478,13.3,13.3,0,0,0,.921,1.132c.856.728,2.142.425,3.23.148s2.465-.39,3.12.522c.447.622.373,1.521.862,2.11a2.179,2.179,0,0,0,1.818.611,14.884,14.884,0,0,1,1.983-.142,3.125,3.125,0,0,1,2.511,4.084c-.222.548-.6,1.019-.855,1.553a1.8,1.8,0,0,0-.053,1.7c.311.492.93.675,1.383,1.041a2.9,2.9,0,0,1,.649,3.151,13.351,13.351,0,0,1-1.723,2.946,15.661,15.661,0,0,0-2.494,9.442Z" fill="#1c2730"/>
      </g>
    </g>
    <g id="Group_8926" data-name="Group 8926">
      <g id="Group_8925" data-name="Group 8925" clip-path="url(#clip-path-15)">
        <rect id="Rectangle_42" data-name="Rectangle 42" width="30.641" height="19.714" transform="translate(296.286 184.233) rotate(-85.586)" fill="url(#linear-gradient-5)"/>
      </g>
    </g>
    <g id="Group_8928" data-name="Group 8928">
      <g id="Group_8927" data-name="Group 8927" clip-path="url(#clip-path)">
        <path id="Path_10850" data-name="Path 10850" d="M72.7,76.339a15.109,15.109,0,0,0-27.817,2.4,15.259,15.259,0,0,0-.707,4.579A15.11,15.11,0,1,0,72.7,76.339m-.333,11.1a13.662,13.662,0,1,1,.645-4.156,13.595,13.595,0,0,1-.645,4.156m.333-11.1a15.109,15.109,0,0,0-27.817,2.4,15.259,15.259,0,0,0-.707,4.579A15.11,15.11,0,1,0,72.7,76.339m-.333,11.1a13.662,13.662,0,1,1,.645-4.156,13.595,13.595,0,0,1-.645,4.156m.333-11.1a15.109,15.109,0,0,0-27.817,2.4,15.259,15.259,0,0,0-.707,4.579A15.11,15.11,0,1,0,72.7,76.339m-.333,11.1a13.662,13.662,0,1,1,.645-4.156,13.595,13.595,0,0,1-.645,4.156m.333-11.1a15.109,15.109,0,0,0-27.817,2.4,15.259,15.259,0,0,0-.707,4.579A15.11,15.11,0,1,0,72.7,76.339m-.333,11.1a13.662,13.662,0,1,1,.645-4.156,13.595,13.595,0,0,1-.645,4.156m.333-11.1a15.109,15.109,0,0,0-27.817,2.4,15.259,15.259,0,0,0-.707,4.579A15.11,15.11,0,1,0,72.7,76.339m-.333,11.1a13.662,13.662,0,1,1,.645-4.156,13.595,13.595,0,0,1-.645,4.156" fill="#e9e9f4"/>
        <path id="Path_10851" data-name="Path 10851" d="M85.869,90.078c-.007-.1-.014-.188-.027-.285a4.064,4.064,0,0,0-.438-1.36,4.2,4.2,0,0,0-2.477-2.088L79.8,85.353a20.462,20.462,0,0,0-.659-7.591l2.921-1.513a4.233,4.233,0,0,0-3.9-7.514l-2.922,1.519a20.213,20.213,0,0,0-5.828-4.9l.992-3.137a4.232,4.232,0,0,0-8.069-2.553l-.993,3.136a20.351,20.351,0,0,0-7.59.652l-1.513-2.914a4.233,4.233,0,1,0-7.514,3.9l1.519,2.914a20.245,20.245,0,0,0-4.906,5.828L38.2,72.183a4.227,4.227,0,0,0-5.308,2.755,4.3,4.3,0,0,0-.2,1.283,4.237,4.237,0,0,0,2.956,4.032l3.136.992a20.3,20.3,0,0,0,.652,7.591l-2.914,1.512a4.232,4.232,0,1,0,3.893,7.515l2.921-1.513a20.3,20.3,0,0,0,5.828,4.9l-.992,3.136a3.969,3.969,0,0,0-.16.729,4.223,4.223,0,0,0,2.366,4.364,4.7,4.7,0,0,0,.549.215,2.072,2.072,0,0,0,.2.056,4.227,4.227,0,0,0,5.086-2.734.341.341,0,0,0,.028-.077l.971-3.052.021-.077a20.611,20.611,0,0,0,7.591-.659l1.512,2.921a4.233,4.233,0,0,0,7.515-3.9l-1.513-2.921a20.336,20.336,0,0,0,4.9-5.829l3.136.992a4.232,4.232,0,0,0,5.308-2.754,4.137,4.137,0,0,0,.194-1.561.026.026,0,0,0-.007-.021M66.247,96.711A15.114,15.114,0,0,1,44.175,83.32a15.262,15.262,0,0,1,.708-4.58A15.109,15.109,0,1,1,66.247,96.711" fill="#d64f30"/>
        <path id="Path_10852" data-name="Path 10852" d="M115.8,33.764a20.071,20.071,0,1,0-23.009,22.7h.007a20.153,20.153,0,0,0,10.075-.993,20.058,20.058,0,0,0,12.927-21.7M110.9,47.822a18.678,18.678,0,1,1,3.518-13.863,19.089,19.089,0,0,1,.194,2.727A18.541,18.541,0,0,1,110.9,47.822M115.8,33.764a20.071,20.071,0,1,0-23.009,22.7h.007a20.153,20.153,0,0,0,10.075-.993,20.058,20.058,0,0,0,12.927-21.7M110.9,47.822a18.678,18.678,0,1,1,3.518-13.863,19.089,19.089,0,0,1,.194,2.727A18.541,18.541,0,0,1,110.9,47.822M115.8,33.764a20.071,20.071,0,1,0-23.009,22.7h.007a20.153,20.153,0,0,0,10.075-.993,20.058,20.058,0,0,0,12.927-21.7M110.9,47.822a18.678,18.678,0,1,1,3.518-13.863,19.089,19.089,0,0,1,.194,2.727A18.541,18.541,0,0,1,110.9,47.822M115.8,33.764a20.071,20.071,0,1,0-23.009,22.7h.007a20.153,20.153,0,0,0,10.075-.993,20.058,20.058,0,0,0,12.927-21.7M110.9,47.822a18.678,18.678,0,1,1,3.518-13.863,19.089,19.089,0,0,1,.194,2.727A18.541,18.541,0,0,1,110.9,47.822M115.8,33.764a20.071,20.071,0,1,0-23.009,22.7h.007a20.153,20.153,0,0,0,10.075-.993,20.058,20.058,0,0,0,12.927-21.7M110.9,47.822a18.678,18.678,0,1,1,3.518-13.863,19.089,19.089,0,0,1,.194,2.727A18.541,18.541,0,0,1,110.9,47.822" fill="#e9e9f4"/>
        <path id="Path_10853" data-name="Path 10853" d="M132.524,31.329a5.449,5.449,0,0,0-6.175-4.608l-4.565.667a27.1,27.1,0,0,0-5.385-9.055l2.762-3.692a5.449,5.449,0,0,0-8.736-6.515l-2.761,3.691A27.119,27.119,0,0,0,97.457,9.229L96.8,4.664a5.452,5.452,0,0,0-10.79,1.568l.666,4.565a27.023,27.023,0,0,0-9.048,5.385l-3.7-2.755a5.446,5.446,0,1,0-6.515,8.729L71.1,24.917a27.149,27.149,0,0,0-2.588,10.207l-4.559.659a5.464,5.464,0,0,0-4.669,5.392,6.206,6.206,0,0,0,.055.785,5.463,5.463,0,0,0,6.176,4.613l4.565-.665a27.139,27.139,0,0,0,5.385,9.048l-2.755,3.7a5.444,5.444,0,0,0,1.11,7.625,5.456,5.456,0,0,0,7.626-1.111L84.2,61.477a27.381,27.381,0,0,0,3.789,1.464,27.061,27.061,0,0,0,2.761.68,27.965,27.965,0,0,0,3.657.444l.284,1.929.382,2.638a5.468,5.468,0,0,0,6.175,4.606,5.342,5.342,0,0,0,2.991-1.471,5.077,5.077,0,0,0,.59-.665,5.4,5.4,0,0,0,1.027-4.039l-.181-1.215-.486-3.351c.771-.278,1.52-.583,2.255-.923a26.773,26.773,0,0,0,6.8-4.462l3.088,2.305.6.45a5.343,5.343,0,0,0,1.908.916,5.534,5.534,0,0,0,2.137.112,5.213,5.213,0,0,0,.548-.112,5.324,5.324,0,0,0,2.456-1.366,5.2,5.2,0,0,0,.576-.653,5.393,5.393,0,0,0,1.082-3.3,4.488,4.488,0,0,0-.055-.749,5.389,5.389,0,0,0-2.13-3.581l-3.7-2.76a27.167,27.167,0,0,0,2.588-10.207l4.565-.667a5.452,5.452,0,0,0,4.607-6.175M102.869,55.468a20.154,20.154,0,0,1-10.075.992h-.007a20.09,20.09,0,1,1,10.082-.992" fill="#d64f30"/>
        <path id="Path_10854" data-name="Path 10854" d="M112.017,36.949A16.346,16.346,0,1,1,95.671,20.6a16.346,16.346,0,0,1,16.346,16.346" fill="#d64f30"/>
        <path id="Path_10855" data-name="Path 10855" d="M99.189,49.426a.311.311,0,0,1-.076.378l-2.418,2.419a.34.34,0,0,1-.486,0L93.79,49.8a.311.311,0,0,1-.076-.378.324.324,0,0,1,.319-.211h1.382V46.8a.352.352,0,0,1,.346-.346h1.382a.35.35,0,0,1,.345.346v2.418H98.87a.323.323,0,0,1,.319.211" fill="#fff"/>
        <path id="Path_10856" data-name="Path 10856" d="M92.043,37.164c0-.467-.325-.747-.9-.747a1.993,1.993,0,0,0-.475.045v1.5a1.8,1.8,0,0,0,.385.03c.611,0,.988-.309.988-.83m3.548-.732a2.355,2.355,0,0,0-.521.046v3.327a2.08,2.08,0,0,0,.4.023,1.576,1.576,0,0,0,1.72-1.781,1.459,1.459,0,0,0-1.6-1.615" fill="#fff"/>
        <path id="Path_10857" data-name="Path 10857" d="M102.389,34.477h-.417V32.464a.158.158,0,0,0,0-.038.331.331,0,0,0-.08-.221l-3.35-3.826,0,0a.355.355,0,0,0-.157-.1l-.018-.006a.349.349,0,0,0-.079-.01H90.051a.683.683,0,0,0-.682.681v5.533h-.417a.972.972,0,0,0-.973.973v5.063a.974.974,0,0,0,.973.974h.417v3.466a.682.682,0,0,0,.682.681h11.24a.682.682,0,0,0,.681-.681V41.487h.417a.974.974,0,0,0,.974-.974V35.45a.973.973,0,0,0-.974-.973M90.051,28.944h7.89V32.43a.341.341,0,0,0,.341.34h3.01v1.707H90.051Zm8.362,9.065a2.576,2.576,0,0,1-.846,2.06,3.649,3.649,0,0,1-2.346.657,10.327,10.327,0,0,1-1.306-.075v-5a10.407,10.407,0,0,1,1.555-.1,3.278,3.278,0,0,1,2.083.543,2.251,2.251,0,0,1,.86,1.917M89.53,40.673V35.654a9.466,9.466,0,0,1,1.554-.1,2.443,2.443,0,0,1,1.555.407,1.491,1.491,0,0,1,.543,1.178,1.624,1.624,0,0,1-.468,1.207,2.359,2.359,0,0,1-1.653.536,2.737,2.737,0,0,1-.392-.023v1.819Zm11.761,4.1H90.051V41.487h11.24Zm.987-8.239h-1.955v1.162h1.826v.936h-1.826v2.045H99.169V35.587h3.109Z" fill="#fff"/>
        <path id="Path_10858" data-name="Path 10858" d="M71.6,83.586A12.459,12.459,0,1,1,59.139,71.127,12.459,12.459,0,0,1,71.6,83.586" fill="#d64f30"/>
        <path id="Path_10859" data-name="Path 10859" d="M57.647,74.384a.237.237,0,0,1,.058-.288l1.843-1.844a.26.26,0,0,1,.371,0L61.762,74.1a.236.236,0,0,1,.058.288.246.246,0,0,1-.243.16H60.524v1.844a.268.268,0,0,1-.264.264H59.207a.27.27,0,0,1-.264-.264V74.544H57.89a.246.246,0,0,1-.243-.16" fill="#fff"/>
        <path id="Path_10860" data-name="Path 10860" d="M56.373,84.527c0-.356-.247-.569-.684-.569a1.512,1.512,0,0,0-.362.034v1.145a1.357,1.357,0,0,0,.293.023c.466,0,.753-.236.753-.633m2.7-.558a1.767,1.767,0,0,0-.4.035V86.54a1.547,1.547,0,0,0,.305.018A1.2,1.2,0,0,0,60.3,85.2a1.112,1.112,0,0,0-1.219-1.231" fill="#fff"/>
        <path id="Path_10861" data-name="Path 10861" d="M64.259,82.48h-.318V80.945a.169.169,0,0,0,0-.03.256.256,0,0,0-.061-.168l-2.553-2.915,0,0a.262.262,0,0,0-.12-.073l-.014,0a.241.241,0,0,0-.06-.008H54.854a.52.52,0,0,0-.519.52V82.48h-.318a.742.742,0,0,0-.742.741v3.86a.742.742,0,0,0,.742.742h.318v2.642a.519.519,0,0,0,.519.519h8.568a.52.52,0,0,0,.519-.519V87.823h.318A.742.742,0,0,0,65,87.081v-3.86a.742.742,0,0,0-.742-.741m-9.405-4.217h6.015v2.656a.258.258,0,0,0,.259.259h2.294v1.3H54.854Zm6.374,6.909a1.966,1.966,0,0,1-.645,1.571,2.782,2.782,0,0,1-1.788.5,7.748,7.748,0,0,1-.995-.057V83.378a7.789,7.789,0,0,1,1.185-.081,2.5,2.5,0,0,1,1.587.414,1.715,1.715,0,0,1,.656,1.461M54.457,87.2V83.378a7.165,7.165,0,0,1,1.185-.081,1.86,1.86,0,0,1,1.185.311,1.133,1.133,0,0,1,.413.9,1.233,1.233,0,0,1-.356.919,1.792,1.792,0,0,1-1.26.409,2.127,2.127,0,0,1-.3-.017V87.2Zm8.965,3.122H54.854v-2.5h8.568Zm.752-6.281h-1.49v.887h1.392v.713H62.684V87.2H61.8V83.326h2.37Z" fill="#fff"/>
      </g>
    </g>
  </g>
</svg>
