<svg width="24" height="24" viewBox="0 0 24 24" fill="none" xmlns="http://www.w3.org/2000/svg">
<path d="M12 22.0801C11.7 22.0801 11.4 22.0101 11.15 21.8701C9.28 20.8501 5.99 19.7701 3.93 19.5001L3.64 19.4601C2.33 19.3001 1.25 18.0701 1.25 16.7401V4.66007C1.25 3.87007 1.56 3.15007 2.13 2.63007C2.7 2.11007 3.44 1.86007 4.22 1.93007C6.42 2.10007 9.74 3.20007 11.62 4.38007L11.86 4.52007C11.93 4.56007 12.08 4.56007 12.14 4.53007L12.3 4.43007C14.18 3.25007 17.5 2.13007 19.71 1.94007C19.73 1.94007 19.81 1.94007 19.83 1.94007C20.56 1.87007 21.31 2.13007 21.87 2.65007C22.44 3.17007 22.75 3.89007 22.75 4.68007V16.7501C22.75 18.0901 21.67 19.3101 20.35 19.4701L20.02 19.5101C17.96 19.7801 14.66 20.8701 12.83 21.8801C12.59 22.0201 12.3 22.0801 12 22.0801ZM3.98 3.42007C3.66 3.42007 3.37 3.53007 3.14 3.74007C2.89 3.97007 2.75 4.30007 2.75 4.66007V16.7401C2.75 17.3301 3.26 17.9001 3.83 17.9801L4.13 18.0201C6.38 18.3201 9.83 19.4501 11.83 20.5401C11.92 20.5801 12.05 20.5901 12.1 20.5701C14.1 19.4601 17.57 18.3201 19.83 18.0201L20.17 17.9801C20.74 17.9101 21.25 17.3301 21.25 16.7401V4.67007C21.25 4.30007 21.11 3.98007 20.86 3.74007C20.6 3.51007 20.27 3.40007 19.9 3.42007C19.88 3.42007 19.8 3.42007 19.78 3.42007C17.87 3.59007 14.79 4.62007 13.11 5.67007L12.95 5.78007C12.4 6.12007 11.62 6.12007 11.09 5.79007L10.85 5.65007C9.14 4.60007 6.06 3.58007 4.1 3.42007C4.06 3.42007 4.02 3.42007 3.98 3.42007Z" fill="#C24E1C"/>
<path d="M12 21.2401C11.59 21.2401 11.25 20.9001 11.25 20.4901V5.49005C11.25 5.08005 11.59 4.74005 12 4.74005C12.41 4.74005 12.75 5.08005 12.75 5.49005V20.4901C12.75 20.9101 12.41 21.2401 12 21.2401Z" fill="#C24E1C"/>
<path d="M7.75 9.24005H5.5C5.09 9.24005 4.75 8.90005 4.75 8.49005C4.75 8.08005 5.09 7.74005 5.5 7.74005H7.75C8.16 7.74005 8.5 8.08005 8.5 8.49005C8.5 8.90005 8.16 9.24005 7.75 9.24005Z" fill="#C24E1C"/>
<path d="M8.5 12.2401H5.5C5.09 12.2401 4.75 11.9001 4.75 11.4901C4.75 11.0801 5.09 10.7401 5.5 10.7401H8.5C8.91 10.7401 9.25 11.0801 9.25 11.4901C9.25 11.9001 8.91 12.2401 8.5 12.2401Z" fill="#C24E1C"/>
</svg>
