<svg id="Group_9024" data-name="Group 9024" xmlns="http://www.w3.org/2000/svg" xmlns:xlink="http://www.w3.org/1999/xlink" width="357.833" height="270.427" viewBox="0 0 357.833 270.427">
  <defs>
    <clipPath id="clip-path">
      <rect id="Rectangle_115" data-name="Rectangle 115" width="357.833" height="270.427" fill="none"/>
    </clipPath>
    <clipPath id="clip-path-3">
      <rect id="Rectangle_91" data-name="Rectangle 91" width="14.002" height="13.623" transform="translate(176.705 223.572)" fill="none"/>
    </clipPath>
    <clipPath id="clip-path-4">
      <rect id="Rectangle_92" data-name="Rectangle 92" width="6.623" height="6.623" transform="translate(180.394 227.072)" fill="none"/>
    </clipPath>
    <clipPath id="clip-path-5">
      <path id="Path_10977" data-name="Path 10977" d="M205.969,243.99l-.851,5.24a1.213,1.213,0,0,0,.96,1.425,8.225,8.225,0,0,0,1.9.03.963.963,0,0,0,.825-.793l1.226-5.9Z" fill="none"/>
    </clipPath>
    <linearGradient id="linear-gradient" x1="-35.529" y1="3.661" x2="-35.355" y2="3.661" gradientUnits="objectBoundingBox">
      <stop offset="0" stop-color="#fbd19d"/>
      <stop offset="1" stop-color="#fea392"/>
    </linearGradient>
    <clipPath id="clip-path-7">
      <path id="Path_10980" data-name="Path 10980" d="M178.636,248.971a1.035,1.035,0,0,0,.785,1.039,8.052,8.052,0,0,0,2.4.037.762.762,0,0,0,.643-.688c.186-1.537.666-5.5.705-5.764l-4.537-.849Z" fill="none"/>
    </clipPath>
    <linearGradient id="linear-gradient-2" x1="-33.289" y1="3.532" x2="-33.102" y2="3.532" xlink:href="#linear-gradient"/>
    <clipPath id="clip-path-9">
      <path id="Path_10984" data-name="Path 10984" d="M203.954,158.415c-2.489,1.244-2.489,3.111-2.489,3.111s1.245,2.49,3.111,1.868a11.638,11.638,0,0,1,4.045,0,11.644,11.644,0,0,0,4.046,0s.623-2.49-.622-2.49c0,0-4.115-2.743-6.859-2.743a2.742,2.742,0,0,0-1.232.254" fill="none"/>
    </clipPath>
    <linearGradient id="linear-gradient-3" x1="-16.593" y1="9.044" x2="-16.511" y2="9.044" xlink:href="#linear-gradient"/>
    <clipPath id="clip-path-11">
      <path id="Path_10986" data-name="Path 10986" d="M177.814,162.36c-1.237-.142-.9,2.4-.9,2.4,1.783.832,6.253.1,8.037.927s3.306-1.5,3.306-1.5.213-1.855-2.117-3.377a3.186,3.186,0,0,0-1.747-.423c-2.728,0-6.576,1.97-6.576,1.97" fill="none"/>
    </clipPath>
    <linearGradient id="linear-gradient-4" x1="-13.236" y1="9.624" x2="-13.161" y2="9.624" xlink:href="#linear-gradient"/>
    <clipPath id="clip-path-13">
      <path id="Path_10988" data-name="Path 10988" d="M189.394,82.581c-.661.088-1.3.182-1.87.277a2.325,2.325,0,0,0-1.935,2.384c.209,4.94.911,9.98,2.5,13.687.5,1.164,1.191,1.373,2.478,1.147a1.429,1.429,0,0,1,1.69,1.205c.289,2.218.728,5.143.912,6.862-.472,3.753,9.876,2.163,8.916-.211-.741-3.833-2.036-10.584-2.776-14.417a2.042,2.042,0,0,0,2.346-.427,1.65,1.65,0,0,0-2.257-2.36c-.544-1.1-1.526-2.793-2.5-4.468a7.525,7.525,0,0,0-7.5-3.679" fill="none"/>
    </clipPath>
    <linearGradient id="linear-gradient-5" x1="-5.841" y1="9.285" x2="-5.808" y2="9.285" xlink:href="#linear-gradient"/>
  </defs>
  <g id="Group_9023" data-name="Group 9023" clip-path="url(#clip-path)">
    <g id="Group_8996" data-name="Group 8996">
      <g id="Group_8995" data-name="Group 8995" clip-path="url(#clip-path)">
        <path id="Path_10953" data-name="Path 10953" d="M132.354,230.044a3.914,3.914,0,0,0,5.459.912L159.894,215.2a3.913,3.913,0,0,0,.913-5.458l-66.349-93A3.912,3.912,0,0,0,89,115.83L66.917,131.585A3.911,3.911,0,0,0,66,137.04Z" fill="#1c2730"/>
        <rect id="Rectangle_83" data-name="Rectangle 83" width="26.605" height="20.345" transform="translate(70.159 135.678) rotate(-35.501)" fill="#d64f30"/>
        <rect id="Rectangle_84" data-name="Rectangle 84" width="26.605" height="20.345" transform="translate(84.626 155.958) rotate(-35.503)" fill="#d86450"/>
        <rect id="Rectangle_85" data-name="Rectangle 85" width="26.605" height="20.346" transform="matrix(0.814, -0.581, 0.581, 0.814, 99.093, 176.238)" fill="#eda988"/>
        <rect id="Rectangle_86" data-name="Rectangle 86" width="26.604" height="20.344" transform="matrix(0.814, -0.581, 0.581, 0.814, 113.562, 196.518)" fill="#f7c9b7"/>
        <path id="Path_10954" data-name="Path 10954" d="M136.13,221.658a3.911,3.911,0,0,0,4.856,2.65l26.025-7.648a3.91,3.91,0,0,0,2.65-4.857L137.449,102.194a3.911,3.911,0,0,0-4.857-2.65l-27.265,8.744c-2.073.612-2.02,1.688-1.411,3.76Z" fill="#1c2730"/>
        <rect id="Rectangle_87" data-name="Rectangle 87" width="26.605" height="20.346" transform="translate(108.287 112.124) rotate(-16.381)" fill="#85b7f9"/>
        <rect id="Rectangle_88" data-name="Rectangle 88" width="26.606" height="20.345" transform="translate(115.312 136.024) rotate(-16.378)" fill="#ff6575"/>
        <rect id="Rectangle_89" data-name="Rectangle 89" width="26.605" height="20.345" transform="matrix(0.959, -0.282, 0.282, 0.959, 122.336, 159.925)" fill="#d372fa"/>
        <rect id="Rectangle_90" data-name="Rectangle 90" width="26.604" height="20.345" transform="translate(129.361 183.823) rotate(-16.374)" fill="#8900c8"/>
        <path id="Path_10955" data-name="Path 10955" d="M357.833,250.754c0,10.865-80.1,19.673-178.916,19.673S0,261.619,0,250.754s80.1-19.673,178.917-19.673,178.916,8.808,178.916,19.673" fill="#e9e9f4"/>
        <path id="Path_10956" data-name="Path 10956" d="M249.812,38.078h-.224C248.715,25.839,254.762.163,235.295,0H132.1a14.165,14.165,0,0,0-6.5,1.569c-12.013,4.652-6.685,27.063-7.781,36.508a1.884,1.884,0,0,0-2.077,1.86V56.407a1.891,1.891,0,0,0,2.077,1.86v3.928a1.884,1.884,0,0,0-2.077,1.861V80.507a1.9,1.9,0,0,0,2.077,1.877C125.974,273.2,75.5,237.639,235.293,240.806a14.3,14.3,0,0,0,14.295-14.3V68.357a1.883,1.883,0,0,0,2.084-1.86V39.938a1.857,1.857,0,0,0-1.86-1.86M196.977,6.229a1.08,1.08,0,0,1,0,2.159,1.08,1.08,0,0,1,0-2.159m-27.132.432a.435.435,0,0,1,.432-.432h23.037c.714-.025.346,1.347.432,1.728a.429.429,0,0,1-.432.431H170.277c-.714.033-.346-1.348-.432-1.727m75.582,213.7H121.976V16.07a12.341,12.341,0,0,1,1.18-5.306c3.813-10.789,22.614-6.411,30.96-7.242a8.366,8.366,0,0,0,8.354,8.114h42.471A8.348,8.348,0,0,0,213.3,3.522c10.485.545,32.139-4.025,32.13,12.549V220.36" fill="#1c2730"/>
        <path id="Path_10957" data-name="Path 10957" d="M245.427,16.917V220.36H121.976V16.917c.279-17.728,20.828-12.787,32.14-13.4a8.365,8.365,0,0,0,8.354,8.114h42.471A8.346,8.346,0,0,0,213.3,3.521c11.194.541,32.01-4.19,32.131,13.4" fill="#dad3cb"/>
        <path id="Path_10958" data-name="Path 10958" d="M193.747,6.661c-.121.381.305,1.758-.432,1.727H170.278a.429.429,0,0,1-.432-.431c.121-.383-.3-1.752.432-1.728h23.037a.434.434,0,0,1,.432.432" fill="#dad3cb"/>
        <path id="Path_10959" data-name="Path 10959" d="M198.057,7.309a1.08,1.08,0,0,1-2.159,0,1.08,1.08,0,0,1,2.159,0" fill="#dad3cb"/>
        <g id="Group_8991" data-name="Group 8991" opacity="0.2">
          <g id="Group_8990" data-name="Group 8990">
            <g id="Group_8989" data-name="Group 8989" clip-path="url(#clip-path-3)">
              <path id="Path_10960" data-name="Path 10960" d="M190.706,230.383c.133,9.082-14.134,9.082-14,0-.133-9.081,14.134-9.081,14,0" fill="#fff"/>
            </g>
          </g>
        </g>
        <g id="Group_8994" data-name="Group 8994" opacity="0.5">
          <g id="Group_8993" data-name="Group 8993">
            <g id="Group_8992" data-name="Group 8992" clip-path="url(#clip-path-4)">
              <path id="Path_10961" data-name="Path 10961" d="M185.706,233.633c-1.11-.269-5.338.848-5.25-1.25.269-1.11-.848-5.338,1.25-5.25,1.11.269,5.338-.847,5.25,1.25-.269,1.11.847,5.338-1.25,5.25m-4-6c-1.412-.124-.508,4.083-.75,4.75-.124,1.412,4.083.508,4.75.75,1.412.124.508-4.083.75-4.75.124-1.412-4.083-.508-4.75-.75" fill="#fff"/>
            </g>
          </g>
        </g>
        <path id="Path_10962" data-name="Path 10962" d="M237.853,75.16H140.144V19.9h97.709Zm-97.013-.845h96.316V20.745H140.84Z" fill="#e9e9f4"/>
        <rect id="Rectangle_93" data-name="Rectangle 93" width="2.611" height="3.207" transform="translate(187.296 18.597)" fill="#e9e9f4"/>
        <path id="Path_10963" data-name="Path 10963" d="M190.255,22.227h-3.307V18.176h3.307Zm-2.611-.845h1.915V19.02h-1.915Z" fill="#e9e9f4"/>
        <rect id="Rectangle_94" data-name="Rectangle 94" width="2.611" height="3.168" transform="translate(187.296 73.19)" fill="#e9e9f4"/>
        <path id="Path_10964" data-name="Path 10964" d="M190.255,76.78h-3.307V72.767h3.307Zm-2.611-.844h1.915V73.613h-1.915Z" fill="#e9e9f4"/>
        <rect id="Rectangle_95" data-name="Rectangle 95" width="2.611" height="3.168" transform="translate(236.295 73.19)" fill="#e9e9f4"/>
        <path id="Path_10965" data-name="Path 10965" d="M239.255,76.78h-3.307V72.767h3.307Zm-2.611-.844h1.915V73.613h-1.915Z" fill="#e9e9f4"/>
        <rect id="Rectangle_96" data-name="Rectangle 96" width="2.611" height="3.168" transform="translate(236.295 18.914)" fill="#e9e9f4"/>
        <path id="Path_10966" data-name="Path 10966" d="M239.255,22.5h-3.307V18.492h3.307Zm-2.611-.845h1.915V19.337h-1.915Z" fill="#e9e9f4"/>
        <rect id="Rectangle_97" data-name="Rectangle 97" width="2.611" height="3.168" transform="translate(139.514 73.19)" fill="#e9e9f4"/>
        <path id="Path_10967" data-name="Path 10967" d="M142.473,76.78h-3.307V72.767h3.307Zm-2.611-.844h1.915V73.613h-1.915Z" fill="#e9e9f4"/>
        <rect id="Rectangle_98" data-name="Rectangle 98" width="2.611" height="3.168" transform="translate(139.514 45.453)" fill="#e9e9f4"/>
        <path id="Path_10968" data-name="Path 10968" d="M142.473,49.044h-3.307V45.031h3.307Zm-2.611-.845h1.915V45.876h-1.915Z" fill="#e9e9f4"/>
        <rect id="Rectangle_99" data-name="Rectangle 99" width="2.611" height="3.168" transform="translate(236.412 45.453)" fill="#e9e9f4"/>
        <path id="Path_10969" data-name="Path 10969" d="M239.372,49.044h-3.307V45.031h3.307Zm-2.611-.845h1.915V45.876h-1.915Z" fill="#e9e9f4"/>
        <rect id="Rectangle_100" data-name="Rectangle 100" width="2.611" height="3.168" transform="translate(139.514 18.914)" fill="#e9e9f4"/>
        <path id="Path_10970" data-name="Path 10970" d="M142.473,22.5h-3.307V18.492h3.307Zm-2.611-.845h1.915V19.337h-1.915Z" fill="#e9e9f4"/>
        <path id="Path_10971" data-name="Path 10971" d="M168.633,33.368v4.51h-7.424v23.35H155.62V37.878H148.2v-4.51Z" fill="#e9e9f4"/>
        <path id="Path_10972" data-name="Path 10972" d="M193.1,51.849H176.934c-.042,5.221,7.582,7.121,9.74,2.434H192.7c-5.778,15.384-27.847,4.049-20.036-10.138,5.707-10.529,23.345-4.383,20.435,7.7M187.471,48.1c-.054-6.265-10.167-6.253-10.5,0Z" fill="#e9e9f4"/>
        <path id="Path_10973" data-name="Path 10973" d="M209.544,61.228l-4.55-6.865-4.032,6.865h-5.987l7.225-11.1-7.3-11.016H201.2l4.51,6.825,4.072-6.825h5.987l-7.264,11.016,7.343,11.1Z" fill="#e9e9f4"/>
        <path id="Path_10974" data-name="Path 10974" d="M225.391,43.706V54.4c-.239,2.777,3.171,2.012,4.95,2.115v4.71c-13.483,1.711-10.239-8.5-10.578-17.522h-2.635v-4.59h2.635V33.648h5.628v5.468h4.95v4.59Z" fill="#e9e9f4"/>
        <path id="Path_10975" data-name="Path 10975" d="M214.995,257.169a1.082,1.082,0,0,0-.029-.286c-1.423-5.643-7.244-8.535-7.244-8.535l-2.8.219c-1.61,4.974-2.648,7.4-2.389,8.761.007.038.019.074.029.111a66.476,66.476,0,0,0,12.432-.27" fill="#1c2730"/>
        <path id="Path_10976" data-name="Path 10976" d="M202.563,257.439a1.213,1.213,0,0,0,.887.9c3.286.691,8.507.135,10.7-.152a1.018,1.018,0,0,0,.845-1.015,66.466,66.466,0,0,1-12.431.27" fill="#1c2730"/>
      </g>
    </g>
    <g id="Group_8998" data-name="Group 8998">
      <g id="Group_8997" data-name="Group 8997" clip-path="url(#clip-path-5)">
        <rect id="Rectangle_102" data-name="Rectangle 102" width="5.76" height="7.296" transform="matrix(0.993, -0.114, 0.114, 0.993, 204.241, 244.078)" fill="url(#linear-gradient)"/>
      </g>
    </g>
    <g id="Group_9000" data-name="Group 9000">
      <g id="Group_8999" data-name="Group 8999" clip-path="url(#clip-path)">
        <path id="Path_10978" data-name="Path 10978" d="M178.775,257.39a16.165,16.165,0,0,0,5.336-.763c0,.3,0,.6-.009.914a.591.591,0,0,1-.564.6l-16.417-.106a.749.749,0,0,1-.6-1.091c2.153.177,7.635.575,12.257.446" fill="#1c2730"/>
        <path id="Path_10979" data-name="Path 10979" d="M166.519,256.943a.818.818,0,0,1,.065-.124c1.45-2.026,5.142-6.06,12.439-7.809l3.5-.111a16.807,16.807,0,0,1,1.588,7.728,16.175,16.175,0,0,1-5.336.762c-4.622.13-10.1-.268-12.257-.446" fill="#1c2730"/>
      </g>
    </g>
    <g id="Group_9002" data-name="Group 9002">
      <g id="Group_9001" data-name="Group 9001" clip-path="url(#clip-path-7)">
        <rect id="Rectangle_104" data-name="Rectangle 104" width="5.354" height="7.904" transform="translate(177.795 242.842) rotate(-6.537)" fill="url(#linear-gradient-2)"/>
      </g>
    </g>
    <g id="Group_9004" data-name="Group 9004">
      <g id="Group_9003" data-name="Group 9003" clip-path="url(#clip-path)">
        <path id="Path_10981" data-name="Path 10981" d="M207.688,166.506s5.6,49.79,2.49,80.907a24.134,24.134,0,0,1-5.6-.621s-5.82-48.682-7.7-62.612a.469.469,0,0,0-.924-.029c-2.323,11.719-11.448,57.677-12.533,62.018,0,0-3.112,1.244-5.6,0,0,0,4.979-66.593,8.713-78.418Z" fill="#1c2730"/>
        <path id="Path_10982" data-name="Path 10982" d="M218.891,108.625s-23.65-3.734-42.321,1.245l1.245,19.293s4.978,26.762,8.713,38.587c0,0,14.314,2.49,21.16-1.245,0,0,5.6-33.608,8.713-38.587,0,0,3.112-13.069,2.49-19.293" fill="#d64f30"/>
        <path id="Path_10983" data-name="Path 10983" d="M218.891,108.625s36.72,39.832-6.535,55.08v-3.112s16.182-13.692,3.734-32.363c0,0,1.556-17.738,2.8-19.6" fill="#d64f30"/>
      </g>
    </g>
    <g id="Group_9006" data-name="Group 9006">
      <g id="Group_9005" data-name="Group 9005" clip-path="url(#clip-path-9)">
        <rect id="Rectangle_106" data-name="Rectangle 106" width="12.132" height="12.794" transform="translate(198.573 161.546) rotate(-49.497)" fill="url(#linear-gradient-3)"/>
      </g>
    </g>
    <g id="Group_9008" data-name="Group 9008">
      <g id="Group_9007" data-name="Group 9007" clip-path="url(#clip-path)">
        <path id="Path_10985" data-name="Path 10985" d="M177,109.641s-41.039,35.365.185,55.466l.356-3.092s-14.507-15.455,0-32.578c0,0,.486-17.8-.537-19.8" fill="#d64f30"/>
      </g>
    </g>
    <g id="Group_9010" data-name="Group 9010">
      <g id="Group_9009" data-name="Group 9009" clip-path="url(#clip-path-11)">
        <rect id="Rectangle_108" data-name="Rectangle 108" width="13.288" height="11.723" transform="matrix(0.83, -0.558, 0.558, 0.83, 173.738, 162.3)" fill="url(#linear-gradient-4)"/>
      </g>
    </g>
    <g id="Group_9012" data-name="Group 9012">
      <g id="Group_9011" data-name="Group 9011" clip-path="url(#clip-path)">
        <path id="Path_10987" data-name="Path 10987" d="M186.77,87.77a20.9,20.9,0,0,1-4.226-4.847,9.594,9.594,0,0,1-1.4-6.177,6.285,6.285,0,0,1,3.687-4.94,3.193,3.193,0,0,1,3.446.478,13.287,13.287,0,0,0,.921,1.132c.856.728,2.142.425,3.23.148s2.465-.39,3.12.522c.447.622.373,1.521.862,2.11a2.179,2.179,0,0,0,1.818.611,14.882,14.882,0,0,1,1.983-.142,3.125,3.125,0,0,1,2.511,4.084c-.222.548-.6,1.019-.855,1.553a1.8,1.8,0,0,0-.053,1.7c.311.492.93.675,1.383,1.041a2.9,2.9,0,0,1,.649,3.151,13.351,13.351,0,0,1-1.723,2.946,15.66,15.66,0,0,0-2.494,9.442Z" fill="#1c2730"/>
      </g>
    </g>
    <g id="Group_9014" data-name="Group 9014">
      <g id="Group_9013" data-name="Group 9013" clip-path="url(#clip-path-13)">
        <rect id="Rectangle_110" data-name="Rectangle 110" width="30.641" height="19.714" transform="translate(183.285 111.722) rotate(-85.586)" fill="url(#linear-gradient-5)"/>
      </g>
    </g>
    <g id="Group_9016" data-name="Group 9016">
      <g id="Group_9015" data-name="Group 9015" clip-path="url(#clip-path)">
        <path id="Path_10989" data-name="Path 10989" d="M42.589,44.607a32.44,32.44,0,1,0,40.02-22.431,32.441,32.441,0,0,0-40.02,22.431" fill="#d64f30"/>
        <path id="Path_10990" data-name="Path 10990" d="M12.1,113.12a32.44,32.44,0,1,0,40.02-22.431A32.441,32.441,0,0,0,12.1,113.12" fill="#d64f30"/>
        <path id="Path_10991" data-name="Path 10991" d="M42.73,181.14a32.44,32.44,0,1,0,40.02-22.431A32.441,32.441,0,0,0,42.73,181.14" fill="#d64f30"/>
        <path id="Path_10992" data-name="Path 10992" d="M42.26,130.8v-17.5l-9-1.725,5.381,3.215V130.8H29.329V107.962H42.26a11.421,11.421,0,1,1,0,22.843Z" fill="none" stroke="#fff" stroke-linecap="round" stroke-linejoin="round" stroke-width="1.5"/>
        <path id="Path_10993" data-name="Path 10993" d="M62.885,39.035c.018-.055.039-.108.053-.164a1.9,1.9,0,0,1,1.839-1.481c.815-.012,1.631,0,2.447,0H79.207A1.935,1.935,0,0,1,81.316,39.5v2.261c.1-.042.183-.072.261-.107.817-.369,1.642-.725,2.449-1.116.388-.187.648.041.646.424-.017,3.354-.01,6.708-.01,10.062,0,.477-.23.622-.671.423l-2.385-1.076c-.082-.038-.166-.072-.29-.126v.311q0,4.782,0,9.563a1.952,1.952,0,0,1-1.425,1.967,2.6,2.6,0,0,1-.665.076q-7.128.006-14.255,0a1.946,1.946,0,0,1-2.046-1.607.519.519,0,0,0-.039-.091Zm.7,10.749q0,5.145,0,10.29a1.291,1.291,0,0,0,1.43,1.439q7.142-.022,14.284-.049a1.24,1.24,0,0,0,1.315-1.292c.005-3.355,0-6.71.007-10.065a.258.258,0,0,0-.19-.273c-.548-.24-1.09-.494-1.639-.732a.936.936,0,0,0-.359-.073c-.707-.007-1.415,0-2.122,0a1.547,1.547,0,0,1-1.584-1.551c-.014-.99-.012-1.981,0-2.972a1.536,1.536,0,0,1,1.534-1.52c.158,0,.316,0,.475,0a9.091,9.091,0,0,0,1.891-.035,9.655,9.655,0,0,0,1.78-.766.233.233,0,0,1,.024-.009c.157-.038.192-.14.19-.3-.008-.808,0-1.615,0-2.423a1.29,1.29,0,0,0-1.428-1.417q-7.079.024-14.158.049a1.27,1.27,0,0,0-1.446,1.435V49.784m20.367-8.435c-.086.035-.147.058-.206.085l-3.118,1.423c-.468.213-.934.433-1.407.637a.287.287,0,0,0-.207.311q.014,2.2,0,4.4a.288.288,0,0,0,.2.312c1.379.621,2.753,1.251,4.128,1.878l.6.275Zm-8.517,4.13v1.049h.254c.591,0,1.181,0,1.772,0,.282,0,.453.145.457.38s-.173.366-.464.368c-.266,0-.533,0-.8,0H75.442a.847.847,0,0,0,.909,1.049h1.955v-4.6c-.683,0-1.355,0-2.027,0a.8.8,0,0,0-.833.994c.087.005.176.011.266.013.615.015,1.231.025,1.846.044a.334.334,0,0,1,.357.337.354.354,0,0,1-.346.357,1.861,1.861,0,0,1-.224,0H75.434" fill="#fff"/>
        <path id="Path_10994" data-name="Path 10994" d="M62.885,39.035c.018-.055.039-.108.053-.164a1.9,1.9,0,0,1,1.839-1.481c.815-.012,1.631,0,2.447,0H79.207A1.935,1.935,0,0,1,81.316,39.5v2.261c.1-.042.183-.072.261-.107.817-.369,1.642-.725,2.449-1.116.388-.187.648.041.646.424-.017,3.354-.01,6.708-.01,10.062,0,.477-.23.622-.671.423l-2.385-1.076c-.082-.038-.166-.072-.29-.126v.311q0,4.782,0,9.563a1.952,1.952,0,0,1-1.425,1.967,2.6,2.6,0,0,1-.665.076q-7.128.006-14.255,0a1.946,1.946,0,0,1-2.046-1.607.519.519,0,0,0-.039-.091Zm.7,10.749q0,5.145,0,10.29a1.291,1.291,0,0,0,1.43,1.439q7.142-.022,14.284-.049a1.24,1.24,0,0,0,1.315-1.292c.005-3.355,0-6.71.007-10.065a.258.258,0,0,0-.19-.273c-.548-.24-1.09-.494-1.639-.732a.936.936,0,0,0-.359-.073c-.707-.007-1.415,0-2.122,0a1.547,1.547,0,0,1-1.584-1.551c-.014-.99-.012-1.981,0-2.972a1.536,1.536,0,0,1,1.534-1.52c.158,0,.316,0,.475,0a9.091,9.091,0,0,0,1.891-.035,9.655,9.655,0,0,0,1.78-.766.233.233,0,0,1,.024-.009c.157-.038.192-.14.19-.3-.008-.808,0-1.615,0-2.423a1.29,1.29,0,0,0-1.428-1.417q-7.079.024-14.158.049a1.27,1.27,0,0,0-1.446,1.435Zm20.367-8.435c-.086.035-.147.058-.206.085l-3.118,1.423c-.468.213-.934.433-1.407.637a.287.287,0,0,0-.207.311q.014,2.2,0,4.4a.288.288,0,0,0,.2.312c1.379.621,2.753,1.251,4.128,1.878l.6.275Zm-8.517,4.13v1.049h.254c.591,0,1.181,0,1.772,0,.282,0,.453.145.457.38s-.173.366-.464.368c-.266,0-.533,0-.8,0H75.442a.847.847,0,0,0,.909,1.049h1.955v-4.6c-.683,0-1.355,0-2.027,0a.8.8,0,0,0-.833.994c.087.005.176.011.266.013.615.015,1.231.025,1.846.044a.334.334,0,0,1,.357.337.354.354,0,0,1-.346.357,1.861,1.861,0,0,1-.224,0Z" fill="none" stroke="#fff" stroke-miterlimit="10" stroke-width="0.25"/>
        <path id="Path_10995" data-name="Path 10995" d="M88.459,46.577c-.1.437-.173.88-.3,1.307a3.818,3.818,0,0,1-1.14,1.841.608.608,0,0,1-.4.136c-.246-.017-.318-.33-.138-.546.159-.191.35-.36.489-.564a4.862,4.862,0,0,0,.766-3.236,3.959,3.959,0,0,0-1.212-2.769c-.179-.189-.2-.36-.051-.525.131-.144.32-.142.509.021a3.888,3.888,0,0,1,1.173,1.88c.133.443.205.9.305,1.357Z" fill="#fff"/>
        <path id="Path_10996" data-name="Path 10996" d="M88.459,46.577c-.1.437-.173.88-.3,1.307a3.818,3.818,0,0,1-1.14,1.841.608.608,0,0,1-.4.136c-.246-.017-.318-.33-.138-.546.159-.191.35-.36.489-.564a4.862,4.862,0,0,0,.766-3.236,3.959,3.959,0,0,0-1.212-2.769c-.179-.189-.2-.36-.051-.525.131-.144.32-.142.509.021a3.888,3.888,0,0,1,1.173,1.88c.133.443.205.9.305,1.357Z" fill="none" stroke="#fff" stroke-miterlimit="10" stroke-width="0.25"/>
        <path id="Path_10997" data-name="Path 10997" d="M86.767,45.885a4.081,4.081,0,0,1-.55,2.2,3.761,3.761,0,0,1-.586.67.3.3,0,0,1-.5-.026.331.331,0,0,1,.047-.471,3.385,3.385,0,0,0,.539-3.795,3.267,3.267,0,0,0-.485-.655c-.168-.191-.227-.388-.108-.529a.4.4,0,0,1,.56.012,2.974,2.974,0,0,1,.962,1.734c.072.331.093.673.118.861" fill="#fff"/>
        <path id="Path_10998" data-name="Path 10998" d="M86.767,45.885a4.081,4.081,0,0,1-.55,2.2,3.761,3.761,0,0,1-.586.67.3.3,0,0,1-.5-.026.331.331,0,0,1,.047-.471,3.385,3.385,0,0,0,.539-3.795,3.267,3.267,0,0,0-.485-.655c-.168-.191-.227-.388-.108-.529a.4.4,0,0,1,.56.012,2.974,2.974,0,0,1,.962,1.734C86.721,45.355,86.742,45.7,86.767,45.885Z" fill="none" stroke="#fff" stroke-miterlimit="10" stroke-width="0.25"/>
        <path id="Path_10999" data-name="Path 10999" d="M68.148,45.51c-.276-.438-.577-.841-.8-1.284-.318-.638-.586-1.3-.856-1.961-.058-.143-.114-.191-.261-.187-.316.01-.633.007-.949,0-.248,0-.405-.145-.4-.348a.374.374,0,0,1,.408-.348c.816,0,1.631.008,2.447.013h.539v-.718c0-.158,0-.316,0-.474,0-.269.135-.422.353-.419s.343.156.344.429c0,.389,0,.778,0,1.2h.716l2.172.012c.049,0,.1,0,.149,0a.341.341,0,0,1,.355.341.318.318,0,0,1-.357.305c-.391.006-.782,0-1.136,0-.262.611-.485,1.213-.774,1.78a14.163,14.163,0,0,1-.886,1.443.23.23,0,0,0,.029.354A8.779,8.779,0,0,0,71.023,47.1c.064.039.129.076.191.118.2.135.264.313.169.484a.4.4,0,0,1-.549.115,9.046,9.046,0,0,1-1.874-1.441c-.1-.105-.205-.215-.305-.321-.4.356-.768.714-1.168,1.034a11.306,11.306,0,0,1-1.029.7.429.429,0,0,1-.324.066.473.473,0,0,1-.279-.26.379.379,0,0,1,.167-.312,9.376,9.376,0,0,0,1.917-1.548c.073-.077.143-.158.209-.23m-.955-3.418a9.515,9.515,0,0,0,1.439,2.825,9.479,9.479,0,0,0,1.429-2.825Z" fill="#fff"/>
        <path id="Path_11000" data-name="Path 11000" d="M68.148,45.51c-.276-.438-.577-.841-.8-1.284-.318-.638-.586-1.3-.856-1.961-.058-.143-.114-.191-.261-.187-.316.01-.633.007-.949,0-.248,0-.405-.145-.4-.348a.374.374,0,0,1,.408-.348c.816,0,1.631.008,2.447.013h.539v-.718c0-.158,0-.316,0-.474,0-.269.135-.422.353-.419s.343.156.344.429c0,.389,0,.778,0,1.2h.716l2.172.012c.049,0,.1,0,.149,0a.341.341,0,0,1,.355.341.318.318,0,0,1-.357.305c-.391.006-.782,0-1.136,0-.262.611-.485,1.213-.774,1.78a14.163,14.163,0,0,1-.886,1.443.23.23,0,0,0,.029.354A8.779,8.779,0,0,0,71.023,47.1c.064.039.129.076.191.118.2.135.264.313.169.484a.4.4,0,0,1-.549.115,9.046,9.046,0,0,1-1.874-1.441c-.1-.105-.205-.215-.305-.321-.4.356-.768.714-1.168,1.034a11.306,11.306,0,0,1-1.029.7.429.429,0,0,1-.324.066.473.473,0,0,1-.279-.26.379.379,0,0,1,.167-.312,9.376,9.376,0,0,0,1.917-1.548C68.012,45.663,68.082,45.582,68.148,45.51Zm-.955-3.418a9.515,9.515,0,0,0,1.439,2.825,9.479,9.479,0,0,0,1.429-2.825Z" fill="none" stroke="#fff" stroke-miterlimit="10" stroke-width="0.25"/>
        <path id="Path_11001" data-name="Path 11001" d="M72.089,59.715H65.346c-.075,0-.15,0-.225,0a.322.322,0,0,1-.331-.335.345.345,0,0,1,.319-.356,1.1,1.1,0,0,1,.2-.005q6.793,0,13.586,0c.19,0,.368,0,.471.2a.32.32,0,0,1-.234.491,1.474,1.474,0,0,1-.249.008H72.089" fill="#fff"/>
        <path id="Path_11002" data-name="Path 11002" d="M72.089,59.715H65.346c-.075,0-.15,0-.225,0a.322.322,0,0,1-.331-.335.345.345,0,0,1,.319-.356,1.1,1.1,0,0,1,.2-.005q6.793,0,13.586,0c.19,0,.368,0,.471.2a.32.32,0,0,1-.234.491,1.474,1.474,0,0,1-.249.008Z" fill="none" stroke="#fff" stroke-miterlimit="10" stroke-width="0.25"/>
        <path id="Path_11003" data-name="Path 11003" d="M72.076,53.971H65.333a1.86,1.86,0,0,1-.224,0,.323.323,0,0,1-.319-.323.346.346,0,0,1,.307-.366,1.046,1.046,0,0,1,.224-.006h13.56a1.665,1.665,0,0,1,.2,0,.363.363,0,0,1,.333.37.333.333,0,0,1-.346.324c-.074,0-.15,0-.225,0H72.076" fill="#fff"/>
        <path id="Path_11004" data-name="Path 11004" d="M72.076,53.971H65.333a1.86,1.86,0,0,1-.224,0,.323.323,0,0,1-.319-.323.346.346,0,0,1,.307-.366,1.046,1.046,0,0,1,.224-.006h13.56a1.665,1.665,0,0,1,.2,0,.363.363,0,0,1,.333.37.333.333,0,0,1-.346.324c-.074,0-.15,0-.225,0Z" fill="none" stroke="#fff" stroke-miterlimit="10" stroke-width="0.25"/>
        <path id="Path_11005" data-name="Path 11005" d="M72.1,56.818H65.334a1.873,1.873,0,0,1-.225,0,.321.321,0,0,1-.319-.322.346.346,0,0,1,.307-.367,1.044,1.044,0,0,1,.224-.006h13.56a1.665,1.665,0,0,1,.2,0,.363.363,0,0,1,.333.37.333.333,0,0,1-.346.324c-.074,0-.15,0-.224,0H72.1" fill="#fff"/>
        <path id="Path_11006" data-name="Path 11006" d="M72.1,56.818H65.334a1.873,1.873,0,0,1-.225,0,.321.321,0,0,1-.319-.322.346.346,0,0,1,.307-.367,1.044,1.044,0,0,1,.224-.006h13.56a1.665,1.665,0,0,1,.2,0,.363.363,0,0,1,.333.37.333.333,0,0,1-.346.324c-.074,0-.15,0-.224,0Z" fill="none" stroke="#fff" stroke-miterlimit="10" stroke-width="0.25"/>
        <path id="Path_11007" data-name="Path 11007" d="M68.63,51.073H65.258c-.313,0-.48-.127-.472-.351s.184-.348.485-.348h6.718a1.053,1.053,0,0,1,.149,0,.358.358,0,0,1,.33.376c0,.214-.147.312-.343.316-.416.009-.832,0-1.248,0H68.63" fill="#fff"/>
        <path id="Path_11008" data-name="Path 11008" d="M68.63,51.073H65.258c-.313,0-.48-.127-.472-.351s.184-.348.485-.348h6.718a1.053,1.053,0,0,1,.149,0,.358.358,0,0,1,.33.376c0,.214-.147.312-.343.316-.416.009-.832,0-1.248,0Z" fill="none" stroke="#fff" stroke-miterlimit="10" stroke-width="0.25"/>
        <path id="Path_11009" data-name="Path 11009" d="M83.414,46v2.772c0,.3-.116.445-.346.447s-.353-.155-.353-.445q0-2.772,0-5.545c0-.291.125-.449.349-.45s.349.158.349.449q0,1.386,0,2.772" fill="#fff"/>
        <path id="Path_11010" data-name="Path 11010" d="M83.414,46v2.772c0,.3-.116.445-.346.447s-.353-.155-.353-.445q0-2.772,0-5.545c0-.291.125-.449.349-.45s.349.158.349.449Q83.416,44.618,83.414,46Z" fill="none" stroke="#fff" stroke-miterlimit="10" stroke-width="0.25"/>
      </g>
    </g>
    <text id="Text_to_Speech" data-name="Text  to Speech" transform="translate(56.942 71.899)" fill="#fff" font-size="5.939" font-family="SegoeUI, Segoe UI"><tspan x="0" y="0" letter-spacing="-0.071em">T</tspan><tspan y="0" letter-spacing="-0.002em">e</tspan><tspan y="0" letter-spacing="0.013em">x</tspan><tspan y="0" xml:space="preserve">t  </tspan><tspan y="0" letter-spacing="-0.005em">t</tspan><tspan y="0">o Speech</tspan></text>
    <text id="Dictionary" transform="translate(28.629 140.897)" fill="#fff" font-size="5.939" font-family="SegoeUI, Segoe UI"><tspan x="0" y="0">Di</tspan><tspan y="0" letter-spacing="0.012em">c</tspan><tspan y="0">tiona</tspan><tspan y="0" letter-spacing="0.025em">r</tspan><tspan y="0">y</tspan></text>
    <text id="Scan_Documents" data-name="Scan Documents" transform="translate(53.082 204.9)" fill="#fff" font-size="5.939" font-family="SegoeUI, Segoe UI"><tspan x="0" y="0" letter-spacing="0.005em">S</tspan><tspan y="0">can </tspan><tspan y="0" letter-spacing="0.003em">D</tspan><tspan y="0">ocume</tspan><tspan y="0" letter-spacing="-0.004em">n</tspan><tspan y="0">ts</tspan></text>
    <g id="Group_9018" data-name="Group 9018">
      <g id="Group_9017" data-name="Group 9017" clip-path="url(#clip-path)">
        <path id="Path_11011" data-name="Path 11011" d="M66.007,171.5a4.228,4.228,0,0,0-4.228,4.228v3.721a.846.846,0,0,0,1.691,0v-3.721a2.537,2.537,0,0,1,2.537-2.537h3.721a.845.845,0,0,0,0-1.691Zm12.177,0a.845.845,0,1,0,0,1.691H81.9a2.537,2.537,0,0,1,2.537,2.537v3.721a.846.846,0,0,0,1.691,0v-3.721A4.228,4.228,0,0,0,81.9,171.5Zm-14.714,16.4a.846.846,0,1,0-1.691,0v3.72a4.228,4.228,0,0,0,4.228,4.228h3.721a.846.846,0,0,0,0-1.691H66.007a2.537,2.537,0,0,1-2.537-2.537Zm22.662,0a.846.846,0,1,0-1.691,0v3.72a2.537,2.537,0,0,1-2.537,2.537h-3.72a.846.846,0,1,0,0,1.691H81.9a4.228,4.228,0,0,0,4.228-4.228Zm-18.941-5.074a.845.845,0,1,0,0,1.691H80.72a.845.845,0,1,0,0-1.691Z" fill="#e9e9f4"/>
        <path id="Path_11012" data-name="Path 11012" d="M310.687,45.607a32.44,32.44,0,1,1-40.02-22.431,32.441,32.441,0,0,1,40.02,22.431" fill="#d64f30"/>
        <path id="Path_11013" data-name="Path 11013" d="M341.181,114.12a32.44,32.44,0,1,1-40.02-22.431,32.441,32.441,0,0,1,40.02,22.431" fill="#d64f30"/>
        <path id="Path_11014" data-name="Path 11014" d="M310.546,182.14a32.44,32.44,0,1,1-40.02-22.431,32.441,32.441,0,0,1,40.02,22.431" fill="#d64f30"/>
        <path id="Path_11015" data-name="Path 11015" d="M278.018,34.918a.351.351,0,0,1,.085-.425l2.721-2.721a.382.382,0,0,1,.546,0l2.721,2.721a.349.349,0,0,1,.085.425.363.363,0,0,1-.358.237h-1.555v2.721a.393.393,0,0,1-.388.388H280.32a.393.393,0,0,1-.389-.388V35.155h-1.555a.363.363,0,0,1-.358-.237" fill="#fff"/>
        <path id="Path_11016" data-name="Path 11016" d="M276.138,49.887c0-.526-.366-.841-1.01-.841a2.235,2.235,0,0,0-.535.051v1.69a2.094,2.094,0,0,0,.433.033c.687,0,1.112-.348,1.112-.933m3.991-.824a2.718,2.718,0,0,0-.586.051v3.744a2.42,2.42,0,0,0,.45.025,1.773,1.773,0,0,0,1.935-2,1.641,1.641,0,0,0-1.8-1.817" fill="#fff"/>
        <path id="Path_11017" data-name="Path 11017" d="M287.776,46.863h-.469V44.6a.315.315,0,0,0,0-.043.376.376,0,0,0-.091-.248l-3.767-4.3,0,0a.391.391,0,0,0-.177-.11l-.021-.007a.364.364,0,0,0-.087-.011H273.9a.767.767,0,0,0-.766.766v6.223h-.47a1.1,1.1,0,0,0-1.1,1.1v5.7a1.1,1.1,0,0,0,1.1,1.1h.47v3.9a.767.767,0,0,0,.766.766h12.644a.767.767,0,0,0,.766-.766v-3.9h.469a1.1,1.1,0,0,0,1.1-1.1v-5.7a1.1,1.1,0,0,0-1.1-1.1M273.9,40.64h8.876v3.921a.383.383,0,0,0,.384.383h3.384v1.919H273.9Zm9.407,10.2a2.9,2.9,0,0,1-.952,2.318,4.107,4.107,0,0,1-2.639.738,11.515,11.515,0,0,1-1.469-.084v-5.62a11.618,11.618,0,0,1,1.749-.118,3.682,3.682,0,0,1,2.343.611,2.53,2.53,0,0,1,.968,2.155m-9.993,3V48.188a10.609,10.609,0,0,1,1.749-.118,2.744,2.744,0,0,1,1.748.458,1.673,1.673,0,0,1,.611,1.324,1.824,1.824,0,0,1-.526,1.358,2.653,2.653,0,0,1-1.859.6,3.075,3.075,0,0,1-.441-.026v2.047Zm13.23,4.606H273.9V54.749h12.644Zm1.11-9.267h-2.2v1.308h2.054v1.052h-2.054v2.3h-1.3V48.112h3.5Z" fill="#fff"/>
      </g>
    </g>
    <text id="Upload_PDFs" data-name="Upload PDFs" transform="translate(264.36 69.899)" fill="#fff" font-size="5.939" font-family="SegoeUI, Segoe UI"><tspan x="0" y="0">Upload PDFs</tspan></text>
    <text id="Edit_Documents" data-name="Edit Documents" transform="translate(290.939 137.899)" fill="#fff" font-size="5.939" font-family="SegoeUI, Segoe UI"><tspan x="0" y="0" letter-spacing="-0.003em">E</tspan><tspan y="0">dit </tspan><tspan y="0" letter-spacing="0.003em">D</tspan><tspan y="0">ocume</tspan><tspan y="0" letter-spacing="-0.003em">n</tspan><tspan y="0">ts</tspan></text>
    <g id="Group_9020" data-name="Group 9020">
      <g id="Group_9019" data-name="Group 9019" clip-path="url(#clip-path)">
        <path id="Path_11018" data-name="Path 11018" d="M314.215,103.56a3.464,3.464,0,0,1,1.373.567,2.819,2.819,0,0,1,1.2,2.3c.015,2.513.008,5.026.006,7.539a.657.657,0,0,1-.667.682.671.671,0,0,1-.653-.725q0-3.684,0-7.369a1.586,1.586,0,0,0-1.3-1.611,2.241,2.241,0,0,0-.434-.027q-6.7,0-13.4,0a1.6,1.6,0,0,0-1.733,1.737q0,9.321,0,18.641a1.608,1.608,0,0,0,1.74,1.734q3.176,0,6.351,0a.661.661,0,0,1,.738.682.646.646,0,0,1-.583.635,1.768,1.768,0,0,1-.193.009c-2.133,0-4.266.007-6.4,0a2.915,2.915,0,0,1-2.934-2.42,3.451,3.451,0,0,1-.047-.651q0-9.321,0-18.641a2.929,2.929,0,0,1,2.5-3.041.523.523,0,0,0,.09-.035Z" fill="#fff"/>
        <path id="Path_11019" data-name="Path 11019" d="M309.56,128.383q.243-1.417.485-2.836c.085-.5.159-1,.255-1.5a.641.641,0,0,1,.184-.3q2.889-2.9,5.785-5.79c.485-.485.968-.971,1.455-1.454a1.807,1.807,0,0,1,2.672-.01c.363.356.714.725,1.081,1.076a2.186,2.186,0,0,1,.592,1.165v.339a2.268,2.268,0,0,1-.578,1.145q-3.666,3.646-7.328,7.3a.534.534,0,0,1-.267.139c-.858.151-1.718.289-2.576.437-.539.092-1.076.193-1.614.29Zm7.572-9.276c-.058.068-.11.14-.172.2-1.555,1.561-3.1,3.134-4.675,4.675a2.048,2.048,0,0,0-.727,1.4c-.022.381-.113.758-.178,1.171.6-.1,1.153-.181,1.7-.292a.925.925,0,0,0,.448-.237q2.554-2.531,5.093-5.079c.061-.061.118-.125.178-.188l-1.671-1.653m1.1-1.1,1.674,1.675c.174-.179.368-.373.556-.573a.327.327,0,0,0,0-.5q-.573-.591-1.164-1.165a.315.315,0,0,0-.459-.018c-.217.19-.421.4-.612.577" fill="#fff"/>
        <path id="Path_11020" data-name="Path 11020" d="M306.969,109.35q2.75,0,5.5,0a.666.666,0,1,1,.122,1.326c-.072.007-.145,0-.218,0h-10.83c-.04,0-.08,0-.121,0a.67.67,0,1,1,.023-1.332q2.763,0,5.524,0Z" fill="#fff"/>
        <path id="Path_11021" data-name="Path 11021" d="M304.542,115.847c-.993,0-1.987,0-2.98,0a.731.731,0,0,1-.66-.282.665.665,0,0,1,.47-1.044,1.362,1.362,0,0,1,.169-.005q2.981,0,5.961,0a.7.7,0,0,1,.66.324.645.645,0,0,1-.471.989c-.328.033-.661.018-.992.018-.719,0-1.438,0-2.157,0" fill="#fff"/>
      </g>
    </g>
    <text id="More" transform="translate(273.174 200.899)" fill="#fff" font-size="5.939" font-family="SegoeUI, Segoe UI"><tspan x="0" y="0" letter-spacing="0.005em">M</tspan><tspan y="0">o</tspan><tspan y="0" letter-spacing="-0.01em">r</tspan><tspan y="0">e</tspan></text>
    <g id="Group_9022" data-name="Group 9022">
      <g id="Group_9021" data-name="Group 9021" clip-path="url(#clip-path)">
        <path id="Path_11022" data-name="Path 11022" d="M274.282,188.883a2.5,2.5,0,1,1-2.5-2.5,2.5,2.5,0,0,1,2.5,2.5" fill="#fff"/>
        <path id="Path_11023" data-name="Path 11023" d="M282.139,188.883a2.5,2.5,0,1,1-2.5-2.5,2.5,2.5,0,0,1,2.5,2.5" fill="#fff"/>
        <path id="Path_11024" data-name="Path 11024" d="M290,188.883a2.5,2.5,0,1,1-2.5-2.5,2.5,2.5,0,0,1,2.5,2.5" fill="#fff"/>
      </g>
    </g>
  </g>
</svg>
