<svg width="25" height="24" viewBox="0 0 25 24" fill="none" xmlns="http://www.w3.org/2000/svg">
<path opacity="0.4" d="M12.5 22C18.0228 22 22.5 17.5228 22.5 12C22.5 6.47715 18.0228 2 12.5 2C6.97715 2 2.5 6.47715 2.5 12C2.5 17.5228 6.97715 22 12.5 22Z" fill="#C24E1C"/>
<path d="M11.08 15.58C10.88 15.58 10.69 15.5 10.55 15.36L7.72 12.53C7.43 12.24 7.43 11.76 7.72 11.47C8.01 11.18 8.49 11.18 8.78 11.47L11.08 13.77L16.22 8.63C16.51 8.34 16.99 8.34 17.28 8.63C17.57 8.92 17.57 9.4 17.28 9.69L11.61 15.36C11.47 15.5 11.28 15.58 11.08 15.58Z" fill="#C24E1C"/>
</svg>
