<svg width="24" height="24" viewBox="0 0 24 24" fill="none" xmlns="http://www.w3.org/2000/svg">
<path fill-rule="evenodd" clip-rule="evenodd" d="M19 19C19.5523 19 20 19.4477 20 20C20 20.5128 19.614 20.9355 19.1166 20.9933L19 21H12C11.4477 21 11 20.5523 11 20C11 19.4871 11.386 19.0645 11.8834 19.0067L12 19H19ZM16.096 4.36822C17.0723 3.39191 18.6552 3.39191 19.6315 4.36822C20.5654 5.30208 20.606 6.79094 19.7533 7.77306L19.6315 7.90375L8.73548 18.7998C8.64009 18.8952 8.53242 18.9772 8.41546 19.0436L8.29552 19.1047L4.4914 20.8338C3.68272 21.2014 2.85255 20.4173 3.12591 19.6093L3.16591 19.5083L4.89505 15.7042C4.95087 15.5814 5.02292 15.4669 5.10911 15.3636L5.19994 15.2643L16.096 4.36822ZM18.2173 5.78243C18.0437 5.60886 17.7743 5.58958 17.5795 5.72457L17.5102 5.78243L6.67827 16.6144L6.08901 17.9107L7.38538 17.3215L18.2173 6.48954C18.4126 6.29428 18.4126 5.97769 18.2173 5.78243Z" fill="#C24E1C"/>
</svg>
