<svg width="25" height="24" viewBox="0 0 25 24" fill="none" xmlns="http://www.w3.org/2000/svg">
<path fill-rule="evenodd" clip-rule="evenodd" d="M12.5 13.4144L18.1568 19.0713C18.5473 19.4618 19.1805 19.4618 19.571 19.0713C19.9615 18.6807 19.9615 18.0476 19.571 17.657L13.9142 12.0002L19.571 6.34335C19.9615 5.95283 19.9615 5.31966 19.571 4.92914C19.1805 4.53861 18.5473 4.53861 18.1568 4.92914L12.5 10.586L6.84309 4.92912C6.45257 4.5386 5.8194 4.5386 5.42888 4.92912C5.03836 5.31965 5.03836 5.95281 5.42888 6.34334L11.0857 12.0002L5.42888 17.6571C5.03836 18.0476 5.03836 18.6807 5.42888 19.0713C5.8194 19.4618 6.45257 19.4618 6.84309 19.0713L12.5 13.4144Z" fill="#C24E1C"/>
</svg>
